<?xml version="1.0" encoding="UTF-8"?>
<svg version="1.1" xmlns="http://www.w3.org/2000/svg" width="1576" height="398">
<path d="M0 0 C1.79852921 -0.00855011 1.79852921 -0.00855011 3.63339233 -0.01727295 C6.15988286 -0.02669118 8.6863855 -0.03324425 11.21289062 -0.03710938 C15.07964227 -0.04685913 18.94587191 -0.07793101 22.8125 -0.109375 C25.27083019 -0.11590145 27.72916416 -0.12115332 30.1875 -0.125 C31.34279205 -0.1373468 32.49808411 -0.1496936 33.68838501 -0.16241455 C34.76655487 -0.15941345 35.84472473 -0.15641235 36.95556641 -0.15332031 C38.37284531 -0.15878876 38.37284531 -0.15878876 39.8187561 -0.16436768 C43.01864709 0.28069507 44.87221363 1.29260576 47.4609375 3.203125 C50.44065766 8.62774376 51.50761579 14.34915282 52.6484375 20.390625 C52.82568359 21.27943359 53.00292969 22.16824219 53.18554688 23.08398438 C53.93090138 26.91435832 54.4609375 30.27658213 54.4609375 34.203125 C58.39804089 31.33977708 61.37229311 28.08416701 64.5078125 24.41015625 C66.57383399 22.07555197 68.73979914 19.89026635 70.9609375 17.703125 C74.43446183 14.27694002 77.69823304 10.74586581 80.85546875 7.02734375 C81.38527344 6.42535156 81.91507812 5.82335937 82.4609375 5.203125 C83.04564819 4.51584824 83.63035889 3.82857147 84.23278809 3.12046814 C86.95176949 0.78075954 88.17642484 0.70205506 91.71679688 0.70141602 C93.28862732 0.68734459 93.28862732 0.68734459 94.89221191 0.67298889 C96.01832886 0.68422287 97.1444458 0.69545685 98.3046875 0.70703125 C99.4659314 0.70557602 100.62717529 0.70412079 101.8236084 0.70262146 C104.2781017 0.70428102 106.73260535 0.71584845 109.18701172 0.73657227 C112.94673813 0.76551569 116.70505398 0.75718349 120.46484375 0.74414062 C122.8489652 0.75037827 125.23308218 0.75876941 127.6171875 0.76953125 C128.74330444 0.76659561 129.86942139 0.76365997 131.02966309 0.76063538 C132.07755005 0.77331955 133.12543701 0.78600372 134.20507812 0.79907227 C135.12567017 0.80447525 136.04626221 0.80987823 136.99475098 0.81544495 C139.96687738 1.28265783 141.33773209 2.08656739 143.4609375 4.203125 C144.970672 13.11055853 140.79580015 21.11409805 137.4609375 29.203125 C138.43546875 29.04231445 139.41 28.88150391 140.4140625 28.71582031 C144.6845707 28.10892199 148.90279343 28.02368222 153.2109375 28 C154.43635254 27.99144989 154.43635254 27.99144989 155.68652344 27.98272705 C157.40428391 27.97333254 159.12206196 27.96676532 160.83984375 27.96289062 C163.45344491 27.95315292 166.06626924 27.92206462 168.6796875 27.890625 C170.35676621 27.88409644 172.03385049 27.87884539 173.7109375 27.875 C174.48405273 27.8626532 175.25716797 27.8503064 176.05371094 27.83758545 C181.94945693 27.86157153 186.8113736 28.89544031 191.3984375 32.890625 C191.7490625 33.32375 192.0996875 33.756875 192.4609375 34.203125 C193.1415625 33.56375 193.8221875 32.924375 194.5234375 32.265625 C200.67722496 27.94488061 208.96025799 29.05107023 216.2109375 29.078125 C217.74234375 29.07232422 217.74234375 29.07232422 219.3046875 29.06640625 C225.24555599 29.07394542 231.06469839 29.3880701 236.97412109 29.98486328 C240.29062771 30.27594486 243.57146963 30.26354666 246.8984375 30.203125 C250.6208044 30.13657989 253.89321072 30.08108808 257.4609375 31.203125 C257.4609375 30.873125 257.4609375 30.543125 257.4609375 30.203125 C264.16068016 29.0392281 270.86096634 28.86160819 277.6484375 28.640625 C278.88480957 28.6003418 280.12118164 28.56005859 281.39501953 28.51855469 C285.08347431 28.40494627 288.77205807 28.30189357 292.4609375 28.203125 C294.02593994 28.15792725 294.02593994 28.15792725 295.62255859 28.11181641 C298.36042567 28.03975519 301.09740989 27.99097521 303.8359375 27.953125 C304.6302417 27.9317749 305.4245459 27.9104248 306.24291992 27.88842773 C312.36403486 27.85175838 316.34377102 29.25310324 320.8359375 33.390625 C321.3721875 33.98875 321.9084375 34.586875 322.4609375 35.203125 C322.8321875 34.23375 323.2034375 33.264375 323.5859375 32.265625 C325.4609375 29.203125 325.4609375 29.203125 327.984375 28.52734375 C332.31989681 28.12301981 336.60826128 27.9802023 340.9609375 27.953125 C341.78980469 27.9325 342.61867188 27.911875 343.47265625 27.890625 C348.52746849 27.85847993 352.13755995 28.27526805 356.4609375 31.203125 C356.7909375 32.193125 357.1209375 33.183125 357.4609375 34.203125 C358.1209375 32.553125 358.7809375 30.903125 359.4609375 29.203125 C365.2362479 28.21399774 370.83885255 28.04897952 376.69140625 28.04199219 C377.69555573 28.03702728 378.6997052 28.03206238 379.73428345 28.02694702 C383.03900855 28.01240266 386.34368572 28.00553792 389.6484375 28 C391.95336915 27.99424418 394.25830079 27.9884865 396.56323242 27.98272705 C401.38818585 27.97224046 406.21312273 27.96638182 411.03808594 27.96289062 C417.21513823 27.95739702 423.3919711 27.93334045 429.56895447 27.90491867 C434.32678874 27.8862856 439.08457007 27.88108643 443.84243774 27.87955475 C446.11977341 27.87653152 448.39710822 27.86851416 450.67440796 27.85536957 C453.85993165 27.83828809 457.04491767 27.84019415 460.23046875 27.84667969 C461.16678131 27.8374649 462.10309387 27.82825012 463.06777954 27.8187561 C468.62925272 27.85417053 472.54970494 28.52671248 477.4609375 31.203125 C481.03287075 35.57856061 480.94703739 39.46427703 480.83203125 44.91015625 C480.22504585 50.29635302 478.45315304 55.18701087 476.4609375 60.203125 C477.9459375 59.708125 477.9459375 59.708125 479.4609375 59.203125 C481.41568759 59.0583287 483.3760513 58.98244998 485.3359375 58.953125 C486.36460937 58.92734375 487.39328125 58.9015625 488.453125 58.875 C491.87314437 59.24809302 493.71119603 60.17284993 496.4609375 62.203125 C497.65951713 64.60028425 497.66178259 66.21577876 497.7109375 68.890625 C497.73671875 69.71949219 497.7625 70.54835938 497.7890625 71.40234375 C497.21376896 76.31288506 496.26515976 79.7045372 492.43603516 82.88500977 C489.8942962 84.58503051 487.3052227 86.12707403 484.6484375 87.640625 C483.75833984 88.18138672 482.86824219 88.72214844 481.95117188 89.27929688 C473.728905 94.10050748 473.728905 94.10050748 468.4609375 93.203125 C465.92308133 91.54039164 465.5290991 90.46957489 464.7734375 87.515625 C464.6703125 86.7525 464.5671875 85.989375 464.4609375 85.203125 C462.9759375 85.698125 462.9759375 85.698125 461.4609375 86.203125 C458.65731116 86.32589072 455.88943595 86.38825718 453.0859375 86.390625 C452.33054687 86.40287109 451.57515625 86.41511719 450.796875 86.42773438 C446.5821495 86.43878698 443.2666725 86.2342757 439.4609375 84.203125 C438.8009375 83.543125 438.1409375 82.883125 437.4609375 82.203125 C437.0278125 82.6775 436.5946875 83.151875 436.1484375 83.640625 C432.65641327 86.87398077 428.6097725 86.39979885 424.0859375 86.453125 C422.12527344 86.49179688 422.12527344 86.49179688 420.125 86.53125 C415.30922341 86.09998642 412.82557638 84.56776388 409.4609375 81.203125 C408.8628125 81.8425 408.2646875 82.481875 407.6484375 83.140625 C403.23412017 87.30269562 397.80337661 86.42221992 392.0859375 86.453125 C391.13976562 86.47375 390.19359375 86.494375 389.21875 86.515625 C384.01913383 86.54483633 380.79424185 86.367125 376.4609375 83.203125 C374.29427083 83.86979167 374.29427083 83.86979167 372.4609375 85.203125 C369.71302776 86.11909491 368.04300411 86.33847991 365.20825195 86.36425781 C364.35338699 86.37386536 363.49852203 86.3834729 362.61775208 86.39337158 C361.69588608 86.39762146 360.77402008 86.40187134 359.82421875 86.40625 C358.870811 86.41195007 357.91740326 86.41765015 356.93510437 86.42352295 C354.91516224 86.4329722 352.8952047 86.43950663 350.87524414 86.44335938 C347.80261848 86.45303313 344.7306709 86.48404419 341.65820312 86.515625 C339.69271229 86.52215857 337.72721669 86.52740765 335.76171875 86.53125 C334.39410149 86.5497702 334.39410149 86.5497702 332.99885559 86.56866455 C325.62391995 86.54324271 319.97724753 84.73279293 313.4609375 81.203125 C312.8628125 81.8425 312.2646875 82.481875 311.6484375 83.140625 C307.66245421 86.89883782 303.2679004 86.41811174 298.0859375 86.453125 C297.33054687 86.47375 296.57515625 86.494375 295.796875 86.515625 C291.1569179 86.54807225 288.27981867 86.12257856 284.4609375 83.203125 C282.86838873 81.61057623 283.23309032 79.97888797 283.1796875 77.7734375 C283.2371771 72.01010559 284.81217235 67.37122216 286.9609375 62.078125 C287.46173828 60.78648437 287.46173828 60.78648437 287.97265625 59.46875 C288.7873337 57.37386512 289.61666615 55.28621699 290.4609375 53.203125 C287.43954065 54.71382342 287.20111129 56.95567831 286 60.06640625 C285.52820313 61.26330078 285.05640625 62.46019531 284.5703125 63.69335938 C283.82749765 65.60110979 283.08807073 67.51008387 282.35253906 69.4206543 C281.63982083 71.26439418 280.91379493 73.10297221 280.1875 74.94140625 C279.76033691 76.04524658 279.33317383 77.14908691 278.89306641 78.28637695 C277.41571284 81.29523188 276.03077031 83.07403936 273.4609375 85.203125 C269.17910988 86.63040087 265.07148314 86.42760269 260.5859375 86.453125 C259.68746094 86.47375 258.78898437 86.494375 257.86328125 86.515625 C252.88801708 86.54502095 249.52290779 86.4323064 245.4609375 83.203125 C245.13480469 83.99976563 244.80867188 84.79640625 244.47265625 85.6171875 C237.8621351 101.64623877 237.8621351 101.64623877 232.4609375 105.203125 C229.21459304 106.27457656 226.16602511 106.34116268 222.76196289 106.36425781 C221.61719986 106.37386536 220.47243683 106.3834729 219.29298401 106.39337158 C217.44446083 106.3997464 217.44446083 106.3997464 215.55859375 106.40625 C214.2887413 106.41195007 213.01888885 106.41765015 211.71055603 106.42352295 C209.02485572 106.43296835 206.33926704 106.43986795 203.65356445 106.44335938 C200.21924586 106.44884762 196.78532301 106.47289186 193.35112858 106.50133133 C190.06614709 106.52447456 186.78114535 106.52640784 183.49609375 106.53125 C181.65060692 106.5497702 181.65060692 106.5497702 179.76783752 106.56866455 C178.61992233 106.56566345 177.47200714 106.56266235 176.28930664 106.55957031 C175.28211075 106.56321594 174.27491486 106.56686157 173.23719788 106.57061768 C169.69434753 106.10165174 167.00476251 104.74695001 164.4609375 102.203125 C163.83089258 96.44790695 164.37115929 92.22401459 167.4609375 87.203125 C166.73648438 87.14253906 166.01203125 87.08195312 165.265625 87.01953125 C163.81542969 86.89384766 163.81542969 86.89384766 162.3359375 86.765625 C161.32273437 86.67796875 160.30953125 86.5903125 159.265625 86.5 C156.4609375 86.203125 156.4609375 86.203125 153.4609375 85.515625 C150.33832546 85.19035291 148.37103301 85.62339485 145.3359375 86.328125 C138.35672603 87.72777587 131.46192707 86.73085299 125.37109375 82.8828125 C123.7109375 81.515625 123.7109375 81.515625 121.4609375 79.203125 C120.31625 80.6571875 120.31625 80.6571875 119.1484375 82.140625 C117.19344935 84.62398832 116.60443591 85.1552922 113.4609375 86.203125 C112.09116257 86.29843951 110.71730638 86.3411634 109.34423828 86.34838867 C108.51973175 86.35476852 107.69522522 86.36114838 106.84573364 86.36772156 C105.95820404 86.36883438 105.07067444 86.3699472 104.15625 86.37109375 C103.24011932 86.37442215 102.32398865 86.37775055 101.38009644 86.38117981 C99.44171653 86.38624277 97.50332791 86.38858833 95.56494141 86.38842773 C92.60434539 86.39061142 89.64412369 86.40876609 86.68359375 86.42773438 C84.79948044 86.43066901 82.91536536 86.43265334 81.03125 86.43359375 C80.14776886 86.44077927 79.26428772 86.44796478 78.35403442 86.45536804 C70.29049042 86.42550741 70.29049042 86.42550741 66.4609375 84.203125 C63.57229354 78.55713907 64.60802239 73.9552438 66.42578125 68.08984375 C67.40766706 65.11623227 68.41846958 62.155976 69.4609375 59.203125 C69.1309375 58.873125 68.8009375 58.543125 68.4609375 58.203125 C62.216845 64.89072314 56.1741055 71.61900163 50.53125 78.828125 C47.54279048 82.25639554 44.80201274 84.75609992 40.4609375 86.203125 C36.2071044 86.43045535 31.95102777 86.43139272 27.69189453 86.44335938 C25.60018044 86.45305895 23.50945213 86.48409262 21.41796875 86.515625 C20.08073497 86.5221564 18.7434942 86.52740633 17.40625 86.53125 C15.58891357 86.54526855 15.58891357 86.54526855 13.73486328 86.55957031 C10.14364121 86.16857969 8.31692395 85.37614433 5.4609375 83.203125 C3.2076088 79.82313195 2.93279576 77.77914753 2.390625 73.78515625 C2.21660156 72.53154297 2.04257813 71.27792969 1.86328125 69.98632812 C1.68733276 68.66278264 1.51155367 67.33921462 1.3359375 66.015625 C1.15305256 64.68024128 0.96946682 63.34495333 0.78515625 62.00976562 C0.33683823 58.74176325 -0.10426731 55.47294941 -0.5390625 52.203125 C-2.97102015 54.63508265 -3.60008139 56.68144651 -4.78125 59.91015625 C-5.20792969 61.05419922 -5.63460937 62.19824219 -6.07421875 63.37695312 C-6.96271594 65.78988354 -7.84816705 68.20393791 -8.73046875 70.61914062 C-9.15972656 71.76705078 -9.58898437 72.91496094 -10.03125 74.09765625 C-10.41651855 75.14800049 -10.80178711 76.19834473 -11.19873047 77.28051758 C-12.63094862 80.40348362 -14.20042411 82.69157695 -16.5390625 85.203125 C-19.98571992 86.35201081 -22.78258155 86.4070597 -26.4140625 86.453125 C-27.62835938 86.47890625 -28.84265625 86.5046875 -30.09375 86.53125 C-34.05954511 86.15355523 -36.70368602 85.03850148 -39.5390625 82.203125 C-40.73592858 73.7637428 -37.98163137 66.69290476 -34.98046875 58.93359375 C-34.51050035 57.68248717 -34.04209891 56.43079097 -33.57518005 55.17854309 C-32.3517489 51.90852384 -31.10963138 48.64594841 -29.86254883 45.3848877 C-28.10504032 40.77911027 -26.37263621 36.16382326 -24.63865662 31.54914856 C-23.71608675 29.09853581 -22.78811034 26.64995007 -21.85414124 24.20365906 C-21.43378098 23.09513077 -21.01342072 21.98660248 -20.58032227 20.84448242 C-20.20948013 19.87314865 -19.838638 18.90181488 -19.45655823 17.90104675 C-17.84289237 13.15601733 -17.51222604 10.0805982 -18.5390625 5.203125 C-18.2090625 4.213125 -17.8790625 3.223125 -17.5390625 2.203125 C-18.1990625 1.873125 -18.8590625 1.543125 -19.5390625 1.203125 C-13.03053065 0.03549696 -6.60015247 0.02436482 0 0 Z M70.4609375 54.203125 C71.4609375 56.203125 71.4609375 56.203125 71.4609375 56.203125 Z M180.4609375 77.203125 C180.4609375 78.523125 180.4609375 79.843125 180.4609375 81.203125 C181.7809375 80.873125 183.1009375 80.543125 184.4609375 80.203125 C183.1409375 79.213125 181.8209375 78.223125 180.4609375 77.203125 Z " fill="#020200" transform="translate(225.5390625,131.796875)"/>
<path d="M0 0 C1.79852921 -0.00855011 1.79852921 -0.00855011 3.63339233 -0.01727295 C6.15988286 -0.02669118 8.6863855 -0.03324425 11.21289062 -0.03710938 C15.07964227 -0.04685913 18.94587191 -0.07793101 22.8125 -0.109375 C25.27083019 -0.11590145 27.72916416 -0.12115332 30.1875 -0.125 C31.34279205 -0.1373468 32.49808411 -0.1496936 33.68838501 -0.16241455 C34.76655487 -0.15941345 35.84472473 -0.15641235 36.95556641 -0.15332031 C38.37284531 -0.15878876 38.37284531 -0.15878876 39.8187561 -0.16436768 C42.99007416 0.27672095 44.87496322 1.34637832 47.4609375 3.203125 C48.52856445 5.09350586 48.52856445 5.09350586 49.13671875 7.23046875 C49.48017334 8.42325439 49.48017334 8.42325439 49.83056641 9.64013672 C50.90120742 13.99319224 51.81789523 18.36084245 52.6484375 22.765625 C52.82568359 23.67892578 53.00292969 24.59222656 53.18554688 25.53320312 C53.61605109 27.75553571 54.04108268 29.97876047 54.4609375 32.203125 C56.79468436 32.42753536 56.79468436 32.42753536 59.03515625 29.859375 C60.07875413 28.81308179 61.11616148 27.76059001 62.1484375 26.703125 C62.69153564 26.15358154 63.23463379 25.60403809 63.79418945 25.0378418 C67.24522966 21.52086142 70.54091486 17.90892944 73.73046875 14.15234375 C76.5479679 10.97868218 79.59994392 8.04415944 82.640625 5.0859375 C84.52477648 3.32559161 84.52477648 3.32559161 85.4609375 1.203125 C93.07800954 1.10178464 100.69490803 1.03168439 108.3125 0.98339844 C110.90436296 0.96327125 113.49618046 0.93596684 116.08789062 0.90136719 C119.81131199 0.85289999 123.53413349 0.83016684 127.2578125 0.8125 C128.99862091 0.78153229 128.99862091 0.78153229 130.77459717 0.74993896 C131.85541565 0.74963684 132.93623413 0.74933472 134.04980469 0.74902344 C135.47543732 0.73569977 135.47543732 0.73569977 136.92987061 0.72210693 C140.25215293 1.35349199 141.44538665 2.52909144 143.4609375 5.203125 C143.59806017 13.56760814 140.24049268 21.41831916 137.4609375 29.203125 C138.26797119 29.04231445 139.07500488 28.88150391 139.90649414 28.71582031 C144.07762112 28.11417414 148.12405496 28.02235003 152.33203125 28 C153.1725856 27.99429993 154.01313995 27.98859985 154.87916565 27.98272705 C156.64998125 27.97331825 158.42081403 27.96675954 160.19165039 27.96289062 C162.88654245 27.95316792 165.58067658 27.92209898 168.27539062 27.890625 C170.00259968 27.88409533 171.72981413 27.87884471 173.45703125 27.875 C174.65422035 27.8564798 174.65422035 27.8564798 175.87559509 27.83758545 C181.84875645 27.86114401 186.74608586 28.8385768 191.3984375 32.890625 C191.7490625 33.32375 192.0996875 33.756875 192.4609375 34.203125 C192.9971875 33.89375 193.5334375 33.584375 194.0859375 33.265625 C199.39451432 30.89073537 205.10280631 31.04364402 210.82421875 31.03515625 C211.61563766 31.03182785 212.40705658 31.02849945 213.22245789 31.02507019 C214.89073103 31.02002773 216.55901417 31.01766103 218.22729492 31.01782227 C220.75521815 31.01564072 223.28270096 30.99747016 225.81054688 30.97851562 C227.44010269 30.97557999 229.06966056 30.97359633 230.69921875 30.97265625 C231.81530266 30.96187798 231.81530266 30.96187798 232.95393372 30.95088196 C239.85196822 30.9803284 248.04745205 31.56299461 253.4609375 36.203125 C256.8933093 41.19361295 257.85558787 45.10221853 257.4609375 51.203125 C254.68336316 62.3502928 250.54012987 75.61131176 241.46484375 83.1171875 C234.71854666 86.77307559 227.51777368 86.61463649 220.0234375 86.828125 C218.91033203 86.86679688 217.79722656 86.90546875 216.65039062 86.9453125 C213.92073274 87.03903466 211.19107187 87.12474794 208.4609375 87.203125 C207.80738281 88.66685547 207.80738281 88.66685547 207.140625 90.16015625 C206.54004534 91.44577209 205.93842764 92.73090337 205.3359375 94.015625 C205.05234375 94.65822266 204.76875 95.30082031 204.4765625 95.96289062 C202.9880109 99.085613 201.64203486 101.0696706 198.84765625 103.12890625 C194.2912641 104.57412867 190.14956164 104.64068552 185.3984375 104.578125 C184.51349609 104.58972656 183.62855469 104.60132813 182.71679688 104.61328125 C177.89672237 104.59158549 174.2653958 104.51569374 170.4609375 101.203125 C169.10347166 96.06414718 169.04623273 91.03253455 171.4609375 86.203125 C170.36394531 86.21472656 169.26695312 86.22632813 168.13671875 86.23828125 C166.68229338 86.24766464 165.22786615 86.25676425 163.7734375 86.265625 C163.05220703 86.27400391 162.33097656 86.28238281 161.58789062 86.29101562 C158.57328836 86.30478093 155.75558115 86.26629383 152.80078125 85.6328125 C149.83783113 85.08869812 147.64302682 85.61792802 144.7109375 86.265625 C137.48005072 87.57144853 132.41672318 86.9547017 126.0859375 83.203125 C125.2196875 82.543125 124.3534375 81.883125 123.4609375 81.203125 C122.4709375 80.543125 121.4809375 79.883125 120.4609375 79.203125 C119.31625 80.6571875 119.31625 80.6571875 118.1484375 82.140625 C116.19344935 84.62398832 115.60443591 85.1552922 112.4609375 86.203125 C111.09130678 86.3032257 109.71746111 86.35131387 108.34423828 86.36425781 C107.51973175 86.37386536 106.69522522 86.3834729 105.84573364 86.39337158 C104.95820404 86.39762146 104.07067444 86.40187134 103.15625 86.40625 C101.78205399 86.41480011 101.78205399 86.41480011 100.38009644 86.42352295 C98.44172316 86.43296827 96.50333386 86.43950507 94.56494141 86.44335938 C91.60420648 86.45306511 88.64416577 86.48409286 85.68359375 86.515625 C83.79948328 86.5221553 81.91536786 86.52740566 80.03125 86.53125 C79.14776886 86.5435968 78.26428772 86.5559436 77.35403442 86.56866455 C72.57706724 86.55140894 69.31953272 86.35483862 65.4609375 83.203125 C63.08022113 78.44169225 64.10916981 73.37035415 65.578125 68.49609375 C66.78745062 65.03210812 68.10332464 61.61170299 69.4609375 58.203125 C69.1309375 57.873125 68.8009375 57.543125 68.4609375 57.203125 C67.35298828 58.51023437 67.35298828 58.51023437 66.22265625 59.84375 C61.05711463 65.91838578 55.86156254 71.96659686 50.5234375 77.890625 C49.66878906 78.84324219 48.81414062 79.79585938 47.93359375 80.77734375 C43.34617137 85.27780078 40.05927678 86.58329321 33.62109375 86.6015625 C32.31076172 86.60542969 31.00042969 86.60929687 29.65039062 86.61328125 C28.97242432 86.60699707 28.29445801 86.60071289 27.59594727 86.59423828 C25.53269015 86.57819694 23.47139923 86.59409788 21.40820312 86.61328125 C19.44077148 86.60748047 19.44077148 86.60748047 17.43359375 86.6015625 C16.24000244 86.59817871 15.04641113 86.59479492 13.81665039 86.59130859 C9.97903406 86.14737917 7.64753265 85.39540989 4.4609375 83.203125 C2.61937994 79.2677323 2.02627613 75.20973842 1.390625 70.9296875 C1.21660156 69.77597656 1.04257813 68.62226563 0.86328125 67.43359375 C0.68925781 66.24378906 0.51523438 65.05398437 0.3359375 63.828125 C0.15417969 62.61511719 -0.02757812 61.40210938 -0.21484375 60.15234375 C-0.6610289 57.16994825 -1.10227171 54.18690834 -1.5390625 51.203125 C-1.85657471 52.02514404 -2.17408691 52.84716309 -2.5012207 53.6940918 C-3.68847544 56.76129286 -4.87984134 59.82683117 -6.07397461 62.89135742 C-6.58863698 64.21461337 -7.10168259 65.53849938 -7.61303711 66.86303711 C-8.35099477 68.7736792 -9.09485799 70.68193279 -9.83984375 72.58984375 C-10.50753784 74.31013794 -10.50753784 74.31013794 -11.1887207 76.06518555 C-14.41765491 83.56861917 -14.41765491 83.56861917 -17.82421875 85.49609375 C-24.18521513 87.15269856 -30.97310683 86.88737984 -37.2890625 85.203125 C-39.5390625 83.203125 -39.5390625 83.203125 -40.6015625 79.640625 C-41.06254385 70.74252074 -36.2453262 61.575605 -33.08984375 53.45703125 C-32.23282971 51.21583654 -31.37673777 48.97428905 -30.52148438 46.73242188 C-29.18706332 43.24249205 -27.84742681 39.75500171 -26.49194336 36.27319336 C-25.17438158 32.88234257 -23.88036818 29.48324861 -22.58984375 26.08203125 C-22.18365311 25.05461319 -21.77746246 24.02719513 -21.35896301 22.96864319 C-18.8503247 16.28308683 -17.75313531 10.35289945 -18.5390625 3.203125 C-18.8690625 2.543125 -19.1990625 1.883125 -19.5390625 1.203125 C-13.03053065 0.03549696 -6.60015247 0.02436482 0 0 Z " fill="#F4B014" transform="translate(1133.5390625,131.796875)"/>
<path d="M0 0 C1.79852921 -0.00855011 1.79852921 -0.00855011 3.63339233 -0.01727295 C6.15988286 -0.02669118 8.6863855 -0.03324425 11.21289062 -0.03710938 C15.07964227 -0.04685913 18.94587191 -0.07793101 22.8125 -0.109375 C25.27083019 -0.11590145 27.72916416 -0.12115332 30.1875 -0.125 C31.34279205 -0.1373468 32.49808411 -0.1496936 33.68838501 -0.16241455 C34.76655487 -0.15941345 35.84472473 -0.15641235 36.95556641 -0.15332031 C38.37284531 -0.15878876 38.37284531 -0.15878876 39.8187561 -0.16436768 C43.01864709 0.28069507 44.87221363 1.29260576 47.4609375 3.203125 C50.44065766 8.62774376 51.50761579 14.34915282 52.6484375 20.390625 C52.82568359 21.27943359 53.00292969 22.16824219 53.18554688 23.08398438 C53.93090138 26.91435832 54.4609375 30.27658213 54.4609375 34.203125 C58.39804089 31.33977708 61.37229311 28.08416701 64.5078125 24.41015625 C66.57383399 22.07555197 68.73979914 19.89026635 70.9609375 17.703125 C74.43446183 14.27694002 77.69823304 10.74586581 80.85546875 7.02734375 C81.38527344 6.42535156 81.91507812 5.82335937 82.4609375 5.203125 C83.16367798 4.16877319 83.16367798 4.16877319 83.88061523 3.11352539 C88.02950861 0.04179763 92.3302876 0.71178562 97.3515625 0.8125 C98.94118805 0.82098969 98.94118805 0.82098969 100.56292725 0.82965088 C103.94605778 0.8520326 107.32812734 0.90223402 110.7109375 0.953125 C113.00519303 0.9731876 115.29946517 0.99143879 117.59375 1.0078125 C123.21650753 1.0519032 128.83864671 1.11883364 134.4609375 1.203125 C132.7847991 6.28420716 131.0308004 11.33610926 129.265625 16.38671875 C128.95675354 17.27162994 128.64788208 18.15654114 128.32965088 19.06826782 C127.3321519 21.92586197 126.33407779 24.7832548 125.3359375 27.640625 C123.97636692 31.5337859 122.61702269 35.42702577 121.2578125 39.3203125 C120.92625153 40.26993362 120.59469055 41.21955475 120.25308228 42.19795227 C118.40523814 47.49199658 116.56217136 52.78763835 114.7265625 58.0859375 C114.35418457 59.16045166 113.98180664 60.23496582 113.59814453 61.34204102 C112.9417338 63.23796926 112.28639453 65.13426893 111.63232422 67.03100586 C109.57053983 72.98392034 109.57053983 72.98392034 108.4609375 75.203125 C93.9409375 75.203125 79.4209375 75.203125 64.4609375 75.203125 C66.1109375 69.923125 67.7609375 64.643125 69.4609375 59.203125 C69.1309375 58.873125 68.8009375 58.543125 68.4609375 58.203125 C62.216845 64.89072314 56.1741055 71.61900163 50.53125 78.828125 C47.54279048 82.25639554 44.80201274 84.75609992 40.4609375 86.203125 C36.2071044 86.43045535 31.95102777 86.43139272 27.69189453 86.44335938 C25.60018044 86.45305895 23.50945213 86.48409262 21.41796875 86.515625 C20.08073497 86.5221564 18.7434942 86.52740633 17.40625 86.53125 C15.58891357 86.54526855 15.58891357 86.54526855 13.73486328 86.55957031 C10.14364121 86.16857969 8.31692395 85.37614433 5.4609375 83.203125 C3.2076088 79.82313195 2.93279576 77.77914753 2.390625 73.78515625 C2.21660156 72.53154297 2.04257813 71.27792969 1.86328125 69.98632812 C1.68733276 68.66278264 1.51155367 67.33921462 1.3359375 66.015625 C1.15305256 64.68024128 0.96946682 63.34495333 0.78515625 62.00976562 C0.33683823 58.74176325 -0.10426731 55.47294941 -0.5390625 52.203125 C-2.97102015 54.63508265 -3.60008139 56.68144651 -4.78125 59.91015625 C-5.20792969 61.05419922 -5.63460937 62.19824219 -6.07421875 63.37695312 C-6.96271594 65.78988354 -7.84816705 68.20393791 -8.73046875 70.61914062 C-9.15972656 71.76705078 -9.58898437 72.91496094 -10.03125 74.09765625 C-10.41651855 75.14800049 -10.80178711 76.19834473 -11.19873047 77.28051758 C-12.63094862 80.40348362 -14.20042411 82.69157695 -16.5390625 85.203125 C-19.98571992 86.35201081 -22.78258155 86.4070597 -26.4140625 86.453125 C-27.62835938 86.47890625 -28.84265625 86.5046875 -30.09375 86.53125 C-34.05954511 86.15355523 -36.70368602 85.03850148 -39.5390625 82.203125 C-40.73592858 73.7637428 -37.98163137 66.69290476 -34.98046875 58.93359375 C-34.51050035 57.68248717 -34.04209891 56.43079097 -33.57518005 55.17854309 C-32.3517489 51.90852384 -31.10963138 48.64594841 -29.86254883 45.3848877 C-28.10504032 40.77911027 -26.37263621 36.16382326 -24.63865662 31.54914856 C-23.71608675 29.09853581 -22.78811034 26.64995007 -21.85414124 24.20365906 C-21.43378098 23.09513077 -21.01342072 21.98660248 -20.58032227 20.84448242 C-20.20948013 19.87314865 -19.838638 18.90181488 -19.45655823 17.90104675 C-17.84289237 13.15601733 -17.51222604 10.0805982 -18.5390625 5.203125 C-18.2090625 4.213125 -17.8790625 3.223125 -17.5390625 2.203125 C-18.1990625 1.873125 -18.8590625 1.543125 -19.5390625 1.203125 C-13.03053065 0.03549696 -6.60015247 0.02436482 0 0 Z M70.4609375 54.203125 C71.4609375 56.203125 71.4609375 56.203125 71.4609375 56.203125 Z " fill="#F4B014" transform="translate(225.5390625,131.796875)"/>
<path d="M0 0 C3.44017871 -0.31274352 5.42597048 -0.33853023 8.4375 1.4375 C10.32852376 4.53877896 10.25395213 6.598612 9.6953125 10.140625 C8.21636952 16.22257029 6.10290173 22.1103232 4 28 C4.80703369 27.83918945 5.61406738 27.67837891 6.44555664 27.51269531 C10.61668362 26.91104914 14.66311746 26.81922503 18.87109375 26.796875 C19.7116481 26.79117493 20.55220245 26.78547485 21.41822815 26.77960205 C23.18904375 26.77019325 24.95987653 26.76363454 26.73071289 26.75976562 C29.42560495 26.75004292 32.11973908 26.71897398 34.81445312 26.6875 C36.54166218 26.68097033 38.26887663 26.67571971 39.99609375 26.671875 C41.19328285 26.6533548 41.19328285 26.6533548 42.41465759 26.63446045 C48.38781895 26.65801901 53.28514836 27.6354518 57.9375 31.6875 C58.288125 32.120625 58.63875 32.55375 59 33 C59.53625 32.690625 60.0725 32.38125 60.625 32.0625 C65.93357682 29.68761037 71.64186881 29.84051902 77.36328125 29.83203125 C78.15470016 29.82870285 78.94611908 29.82537445 79.76152039 29.82194519 C81.42979353 29.81690273 83.09807667 29.81453603 84.76635742 29.81469727 C87.29428065 29.81251572 89.82176346 29.79434516 92.34960938 29.77539062 C93.97916519 29.77245499 95.60872306 29.77047133 97.23828125 29.76953125 C98.35436516 29.75875298 98.35436516 29.75875298 99.49299622 29.74775696 C106.39103072 29.7772034 114.58651455 30.35986961 120 35 C123.4323718 39.99048795 124.39465037 43.89909353 124 50 C121.22242566 61.1471678 117.07919237 74.40818676 108.00390625 81.9140625 C101.25760916 85.56995059 94.05683618 85.41151149 86.5625 85.625 C85.44939453 85.66367188 84.33628906 85.70234375 83.18945312 85.7421875 C80.45979524 85.83590966 77.73013437 85.92162294 75 86 C74.34644531 87.46373047 74.34644531 87.46373047 73.6796875 88.95703125 C73.07910784 90.24264709 72.47749014 91.52777837 71.875 92.8125 C71.59140625 93.45509766 71.3078125 94.09769531 71.015625 94.75976562 C69.5270734 97.882488 68.18109736 99.8665456 65.38671875 101.92578125 C60.8303266 103.37100367 56.68862414 103.43756052 51.9375 103.375 C51.05255859 103.38660156 50.16761719 103.39820313 49.25585938 103.41015625 C44.43578487 103.38846049 40.8044583 103.31256874 37 100 C35.64253416 94.86102218 35.58529523 89.82940955 38 85 C36.90300781 85.01160156 35.80601563 85.02320313 34.67578125 85.03515625 C33.22135588 85.04453964 31.76692865 85.05363925 30.3125 85.0625 C29.59126953 85.07087891 28.87003906 85.07925781 28.12695312 85.08789062 C25.11235086 85.10165593 22.29464365 85.06316883 19.33984375 84.4296875 C16.37689363 83.88557312 14.18208932 84.41480302 11.25 85.0625 C4.01911322 86.36832353 -1.04421432 85.7515767 -7.375 82 C-8.24125 81.34 -9.1075 80.68 -10 80 C-10.99 79.34 -11.98 78.68 -13 78 C-13.763125 78.969375 -14.52625 79.93875 -15.3125 80.9375 C-17.26748815 83.42086332 -17.85650159 83.9521672 -21 85 C-22.36963072 85.1001007 -23.74347639 85.14818887 -25.11669922 85.16113281 C-25.94120575 85.17074036 -26.76571228 85.1803479 -27.61520386 85.19024658 C-28.50273346 85.19449646 -29.39026306 85.19874634 -30.3046875 85.203125 C-31.22081818 85.20882507 -32.13694885 85.21452515 -33.08084106 85.22039795 C-35.01921434 85.22984327 -36.95760364 85.23638007 -38.89599609 85.24023438 C-41.85673102 85.24994011 -44.81677173 85.28096786 -47.77734375 85.3125 C-49.66145422 85.3190303 -51.54556964 85.32428066 -53.4296875 85.328125 C-54.31316864 85.3404718 -55.19664978 85.3528186 -56.10690308 85.36553955 C-60.88387026 85.34828394 -64.14140478 85.15171362 -68 82 C-69 80 -69 80 -69 74 C-54.48 74 -39.96 74 -25 74 C-24.34 71.03 -23.68 68.06 -23 65 C-22.36736662 62.909459 -21.69790954 60.82955031 -20.98461914 58.76513672 C-20.59403824 57.62720673 -20.20345734 56.48927673 -19.80104065 55.31686401 C-19.17442787 53.51646164 -19.17442787 53.51646164 -18.53515625 51.6796875 C-18.09644015 50.40906876 -17.65808734 49.13832454 -17.22007751 47.86746216 C-16.30611206 45.21900099 -15.38886114 42.57171004 -14.46899414 39.92529297 C-13.29605896 36.55044274 -12.12980093 33.17333313 -10.96579838 29.79539299 C-10.0627661 27.17628316 -9.15702234 24.55811764 -8.25039482 21.9402504 C-7.61182577 20.09561891 -6.97484769 18.25043692 -6.33790588 16.40524292 C-4.40294602 10.84398718 -2.42487346 5.36723551 0 0 Z " fill="#030200" transform="translate(1267,133)"/>
<path d="M0 0 C1.00397324 -0.00503792 1.00397324 -0.00503792 2.02822876 -0.01017761 C4.21952215 -0.01960091 6.41073845 -0.02162627 8.60205078 -0.02270508 C10.13990306 -0.02592338 11.67775504 -0.02928788 13.21560669 -0.03279114 C16.43150542 -0.03876066 19.64737737 -0.04063326 22.86328125 -0.04003906 C26.96401432 -0.0399375 31.06457401 -0.05359301 35.16526604 -0.07081127 C38.33961766 -0.08198263 41.51392801 -0.08395671 44.68829727 -0.08342934 C46.19921593 -0.08460159 47.71013593 -0.0889805 49.221035 -0.0967617 C68.91278599 -0.18869423 68.91278599 -0.18869423 74.98486328 4.52026367 C78.58977347 9.72735616 77.60203225 16.23219047 76.57226562 22.16088867 C76.14832946 24.29290757 75.67598319 26.40569478 75.17236328 28.52026367 C74.93755249 29.51872314 74.93755249 29.51872314 74.69799805 30.53735352 C73.25239764 36.0471048 71.1586705 40.3639293 66.65673828 43.94995117 C63.20658005 45.4581632 59.88144661 45.91800436 56.17236328 46.27026367 C55.52654297 46.34374023 54.88072266 46.4172168 54.21533203 46.49291992 C46.14535269 47.35271211 38.02326125 47.69650889 29.92236328 48.14526367 C29.61008789 49.12398437 29.2978125 50.10270508 28.97607422 51.11108398 C27.81049715 54.75298859 26.62885878 58.3895139 25.44238281 62.0246582 C24.93182214 63.59648578 24.42558528 65.16972484 23.92382812 66.74438477 C23.20039285 69.01210367 22.46138205 71.27423359 21.71923828 73.53588867 C21.49927185 74.23707825 21.27930542 74.93826782 21.05267334 75.66070557 C19.69469541 79.73837042 18.32027536 82.46617239 14.92236328 85.14526367 C11.10928488 86.41628981 7.50261856 86.32719102 3.52783203 86.34838867 C2.70285721 86.35408875 1.87788239 86.35978882 1.02790833 86.36566162 C-0.7179537 86.3751049 -2.46383349 86.38164294 -4.2097168 86.38549805 C-6.8697859 86.39518953 -9.5290775 86.42621279 -12.18896484 86.45776367 C-13.88752798 86.46429557 -15.58609662 86.46954531 -17.28466797 86.47338867 C-18.47090508 86.49190887 -18.47090508 86.49190887 -19.68110657 86.51080322 C-24.51731863 86.49146811 -27.92931866 85.910003 -32.07763672 83.14526367 C-34.95782608 74.14467191 -30.17165228 64.04416651 -27.23388672 55.53979492 C-26.8641272 54.45695724 -26.49436768 53.37411957 -26.11340332 52.25846863 C-24.93930456 48.82334395 -23.75862093 45.39052648 -22.57763672 41.95776367 C-21.78422274 39.6408588 -20.99124969 37.32380288 -20.19873047 35.0065918 C-18.74641092 30.76125427 -17.29123598 26.51691656 -15.83349609 22.2734375 C-15.52669922 21.37348053 -15.21990234 20.47352356 -14.90380859 19.54629517 C-14.22806844 17.58245032 -13.52660593 15.62747285 -12.81787109 13.67529297 C-11.53710145 9.29778116 -12.66733682 5.37616336 -14.07763672 1.14526367 C-9.34122677 0.38480876 -4.7951716 0.01522104 0 0 Z " fill="#F4AF14" transform="translate(835.07763671875,131.854736328125)"/>
<path d="M0 0 C6.75 0.75 6.75 0.75 9 3 C10.25025481 12.06434736 6.38919532 19.77918397 3 28 C3.97453125 27.83918945 4.9490625 27.67837891 5.953125 27.51269531 C10.2236332 26.90579699 14.44185593 26.82055722 18.75 26.796875 C19.97541504 26.78832489 19.97541504 26.78832489 21.22558594 26.77960205 C22.94334641 26.77020754 24.66112446 26.76364032 26.37890625 26.75976562 C28.99250741 26.75002792 31.60533174 26.71893962 34.21875 26.6875 C35.89582871 26.68097144 37.57291299 26.67572039 39.25 26.671875 C40.02311523 26.6595282 40.79623047 26.6471814 41.59277344 26.63446045 C47.55177004 26.65870385 52.61786374 27.61786374 57 32 C56.72036199 37.63645355 54.22986927 42.59232668 52 47.6875 C51.26998171 49.37853886 50.54077967 51.06993039 49.8125 52.76171875 C49.48894531 53.50381592 49.16539062 54.24591309 48.83203125 55.01049805 C47.52856393 58.12726892 46.86228632 60.64358892 46.875 64 C46.87242187 64.680625 46.86984375 65.36125 46.8671875 66.0625 C46.93368874 68.21874781 46.93368874 68.21874781 48 71 C51.50956292 72.83843448 54.59512438 73.28251814 58.51953125 73.4140625 C59.54111328 73.45273438 60.56269531 73.49140625 61.61523438 73.53125 C62.67033203 73.5621875 63.72542969 73.593125 64.8125 73.625 C65.88693359 73.66367188 66.96136719 73.70234375 68.06835938 73.7421875 C70.71207088 73.83618613 73.3557805 73.92184573 76 74 C76.66 75.32 77.32 76.64 78 78 C75.55355804 80.88263412 75.16254731 80.98587997 71.0793457 81.34057617 C69.44474725 81.34010167 67.81010054 81.32318098 66.17578125 81.29296875 C65.31438034 81.28872391 64.45297943 81.28447906 63.56547546 81.28010559 C60.81416569 81.26331248 58.06358838 81.22565956 55.3125 81.1875 C53.4472762 81.17245396 51.58204093 81.15876541 49.71679688 81.14648438 C45.14424902 81.11340693 40.5722487 81.0616206 36 81 C35.01 82.98 35.01 82.98 34 85 C22.79927503 85.16311735 22.79927503 85.16311735 18.9375 84.375 C15.81190641 83.97598805 13.92071671 84.41447718 10.875 85.125 C3.89578853 86.52465087 -2.99901043 85.52772799 -9.08984375 81.6796875 C-10.75 80.3125 -10.75 80.3125 -13 78 C-13.763125 78.969375 -14.52625 79.93875 -15.3125 80.9375 C-17.26748815 83.42086332 -17.85650159 83.9521672 -21 85 C-22.36977493 85.09531451 -23.74363112 85.1380384 -25.11669922 85.14526367 C-25.94120575 85.15164352 -26.76571228 85.15802338 -27.61520386 85.16459656 C-28.50273346 85.16570938 -29.39026306 85.1668222 -30.3046875 85.16796875 C-31.22081818 85.17129715 -32.13694885 85.17462555 -33.08084106 85.17805481 C-35.01922097 85.18311777 -36.95760959 85.18546333 -38.89599609 85.18530273 C-41.85659211 85.18748642 -44.81681381 85.20564109 -47.77734375 85.22460938 C-49.66145706 85.22754401 -51.54557214 85.22952834 -53.4296875 85.23046875 C-54.31316864 85.23765427 -55.19664978 85.24483978 -56.10690308 85.25224304 C-64.22194932 85.22219169 -64.22194932 85.22219169 -68 83 C-69.69835501 79.37169613 -70.28163292 77.84489875 -69 74 C-54.81 74 -40.62 74 -26 74 C-25.01 70.7 -24.02 67.4 -23 64 C-22.33830642 61.94643522 -21.66615425 59.89617948 -20.97875977 57.85107422 C-20.61150284 56.75648895 -20.24424591 55.66190369 -19.86585999 54.53414917 C-19.28450539 52.81181564 -19.28450539 52.81181564 -18.69140625 51.0546875 C-18.28341293 49.84483185 -17.87541962 48.6349762 -17.45506287 47.38845825 C-16.59628135 44.84505498 -15.7366107 42.30196985 -14.87573242 39.75927734 C-13.7802657 36.52239326 -12.69183351 33.28318921 -11.60496616 30.04340935 C-10.55551709 26.92045395 -9.49788297 23.80027113 -8.44140625 20.6796875 C-8.05586075 19.52741669 -7.67031525 18.37514587 -7.27308655 17.18795776 C-5.23183258 11.19064867 -2.99833535 5.58357617 0 0 Z M46 76 C46 77.32 46 78.64 46 80 C47.32 79.67 48.64 79.34 50 79 C48.68 78.01 47.36 77.02 46 76 Z " fill="#020200" transform="translate(360,133)"/>
<path d="M0 0 C0.78858902 -0.00191345 1.57717804 -0.0038269 2.3896637 -0.00579834 C4.04599327 -0.00715022 5.70233379 -0.00352403 7.35864258 0.00488281 C9.86889899 0.01558235 12.37843755 0.00496098 14.88867188 -0.0078125 C16.50911614 -0.00649045 18.12955996 -0.00392711 19.75 0 C20.48778183 -0.00404846 21.22556366 -0.00809692 21.98570251 -0.01226807 C28.86301533 0.04843307 37.04710556 0.6419387 42.44140625 5.265625 C45.87377805 10.25611295 46.83605662 14.16471853 46.44140625 20.265625 C43.66383191 31.4127928 39.52059862 44.67381176 30.4453125 52.1796875 C23.69901541 55.83557559 16.49824243 55.67713649 9.00390625 55.890625 C7.89080078 55.92929688 6.77769531 55.96796875 5.63085938 56.0078125 C2.90120149 56.10153466 0.17154062 56.18724794 -2.55859375 56.265625 C-2.99429687 57.24144531 -3.43 58.21726563 -3.87890625 59.22265625 C-4.47948591 60.50827209 -5.08110361 61.79340337 -5.68359375 63.078125 C-6.10898438 64.04202148 -6.10898438 64.04202148 -6.54296875 65.02539062 C-8.03152035 68.148113 -9.37749639 70.1321706 -12.171875 72.19140625 C-16.72826715 73.63662867 -20.86996961 73.70318552 -25.62109375 73.640625 C-26.50603516 73.65222656 -27.39097656 73.66382813 -28.30273438 73.67578125 C-33.1314785 73.65404647 -36.73524289 73.56480679 -40.55859375 70.265625 C-42.98519696 62.17694763 -39.69763142 54.02631517 -36.62109375 46.515625 C-34.26285672 40.65094322 -31.99326799 34.76304245 -29.828125 28.82421875 C-29.10390323 26.85485639 -28.37852263 24.88592454 -27.65280151 22.91711426 C-27.17651982 21.61649964 -26.7048722 20.31417789 -26.23806763 19.01013184 C-25.57378665 17.15708912 -24.89067104 15.31083215 -24.20703125 13.46484375 C-23.81692871 12.39065186 -23.42682617 11.31645996 -23.02490234 10.2097168 C-20.53662832 5.21369675 -18.094146 2.79239494 -12.78100586 0.96972656 C-8.51944229 0.11857281 -4.33464704 -0.02372061 0 0 Z " fill="#F3AF14" transform="translate(1344.55859375,162.734375)"/>
<path d="M0 0 C0.97582031 -0.01224609 1.95164062 -0.02449219 2.95703125 -0.03710938 C4.37435547 -0.04000977 4.37435547 -0.04000977 5.8203125 -0.04296875 C7.09672607 -0.04913208 7.09672607 -0.04913208 8.39892578 -0.05541992 C12.33793823 0.33102431 15.07316297 1.38566297 17.875 4.1875 C18.74295348 11.79111064 16.23295537 18.33459515 13.859375 25.48828125 C13.44200573 26.77297621 13.02562161 28.0579916 12.61016846 29.3433075 C11.51739473 32.71428909 10.41035517 36.08041907 9.30047607 39.44580078 C8.40517989 42.16849783 7.52000409 44.8944307 6.63540268 47.62061787 C4.08232477 55.48744057 1.52214302 63.35173294 -1.125 71.1875 C-1.47703491 72.24053314 -1.82906982 73.29356628 -2.19177246 74.37850952 C-2.53164185 75.36114777 -2.87151123 76.34378601 -3.22167969 77.35620117 C-3.51709656 78.21871994 -3.81251343 79.08123871 -4.11688232 79.96989441 C-5.17966543 82.3077502 -6.13191079 83.58577335 -8.125 85.1875 C-12.9687059 86.80206863 -17.92760983 86.41365798 -23 86.4375 C-24.08925781 86.458125 -25.17851563 86.47875 -26.30078125 86.5 C-27.35394531 86.50515625 -28.40710938 86.5103125 -29.4921875 86.515625 C-30.45237793 86.5249707 -31.41256836 86.53431641 -32.40185547 86.54394531 C-35.61524508 86.12332949 -37.44244201 84.95867251 -40.125 83.1875 C-43.125 81.85416667 -43.125 81.85416667 -46.125 83.1875 C-49.41227925 83.44007326 -52.70401724 83.41874619 -56 83.4375 C-56.89847656 83.458125 -57.79695312 83.47875 -58.72265625 83.5 C-63.6180596 83.5289241 -67.23936768 83.54399134 -71.125 80.1875 C-73.35386835 73.02328031 -70.76254808 66.83870819 -68.125 60.1875 C-62.71486868 59.28581145 -57.48072585 59.00454455 -52 59 C-50.82244141 58.98163086 -50.82244141 58.98163086 -49.62109375 58.96289062 C-48.47447266 58.95999023 -48.47447266 58.95999023 -47.3046875 58.95703125 C-46.27964111 58.95086792 -46.27964111 58.95086792 -45.23388672 58.94458008 C-42.63045747 59.24446571 -40.51344036 60.13601323 -38.125 61.1875 C-37.80337891 60.22263672 -37.48175781 59.25777344 -37.15039062 58.26367188 C-30.80859375 39.23828125 -24.46679688 20.21289062 -18.125 1.1875 C-12.06701402 0.1328367 -6.14126727 0.00408873 0 0 Z " fill="#020100" transform="translate(969.125,131.8125)"/>
<path d="M0 0 C1.60681641 -0.00580078 1.60681641 -0.00580078 3.24609375 -0.01171875 C4.79876953 -0.00978516 4.79876953 -0.00978516 6.3828125 -0.0078125 C7.31754395 -0.00668457 8.25227539 -0.00555664 9.21533203 -0.00439453 C11.86870672 0.12469383 14.28017305 0.57650212 16.875 1.125 C18.27480463 1.26005056 19.67773043 1.36636727 21.08203125 1.44140625 C21.83291016 1.48330078 22.58378906 1.52519531 23.35742188 1.56835938 C24.12634766 1.60767578 24.89527344 1.64699219 25.6875 1.6875 C26.86989258 1.75227539 26.86989258 1.75227539 28.07617188 1.81835938 C30.00894215 1.92378321 31.94195026 2.02483094 33.875 2.125 C32.30506148 6.93660589 30.58811806 11.68162317 28.828125 16.42578125 C28.2239476 18.06054291 27.61978132 19.69530867 27.015625 21.33007812 C26.07721171 23.86578547 25.13839361 26.40134221 24.19921875 28.93676758 C23.58744207 30.58905275 22.97623556 32.24154914 22.36560059 33.89425659 C21.75843493 35.5371575 21.14979747 37.17951524 20.53967285 38.82131958 C19.04013102 42.87587801 17.58835329 46.93812578 16.22460938 51.04052734 C15.96218445 51.820103 15.69975952 52.59967865 15.42938232 53.40287781 C14.9384253 54.87093267 14.45826479 56.34266011 13.99102783 57.81843567 C12.63542426 61.85200989 11.57340371 63.99582137 7.875 66.125 C5.1161499 66.48576355 5.1161499 66.48576355 1.91308594 66.46557617 C0.71214294 66.46534958 -0.48880005 66.46512299 -1.72613525 66.46488953 C-3.01791687 66.44940567 -4.30969849 66.43392181 -5.640625 66.41796875 C-6.98011805 66.41237052 -8.31961726 66.40810149 -9.65911865 66.40510559 C-13.17737921 66.39367454 -16.69526571 66.36422294 -20.21337891 66.33099365 C-23.80626364 66.30025489 -27.39920906 66.28659216 -30.9921875 66.27148438 C-38.03661096 66.23935113 -45.080781 66.18817621 -52.125 66.125 C-48.72854304 55.74736397 -48.72854304 55.74736397 -46.125 53.125 C-43.01414535 52.09768245 -40.01894438 52.16972559 -36.765625 52.22265625 C-35.86124695 52.21036484 -34.9568689 52.19807343 -34.02508545 52.18540955 C-31.14090034 52.15365479 -28.25926553 52.16996282 -25.375 52.1875 C-23.41794496 52.17439255 -21.46090821 52.15815349 -19.50390625 52.13867188 C-14.71039258 52.09779538 -9.91860462 52.10001354 -5.125 52.125 C-5.455 50.475 -5.785 48.825 -6.125 47.125 C-6.7955542 47.11041748 -7.4661084 47.09583496 -8.15698242 47.08081055 C-11.20938822 47.006117 -14.26072585 46.90952701 -17.3125 46.8125 C-18.89514648 46.77866211 -18.89514648 46.77866211 -20.50976562 46.74414062 C-22.04213867 46.6909668 -22.04213867 46.6909668 -23.60546875 46.63671875 C-25.01155396 46.59744263 -25.01155396 46.59744263 -26.44604492 46.55737305 C-29.62891892 46.04366942 -31.52589475 45.01219699 -34.125 43.125 C-36.61848896 39.38476655 -36.59599729 36.4534055 -36.125 32.125 C-35.0234375 28.484375 -35.0234375 28.484375 -33.5 24.875 C-33.09503296 23.91436646 -33.09503296 23.91436646 -32.68188477 22.93432617 C-31.8498432 20.98823185 -30.99247026 19.05553192 -30.125 17.125 C-29.61066406 15.97128906 -29.09632813 14.81757813 -28.56640625 13.62890625 C-24.16714199 4.29332468 -24.16714199 4.29332468 -19.125 1.125 C-12.90824716 -0.38546425 -6.36733262 -0.02315394 0 0 Z " fill="#F3AE14" transform="translate(442.125,160.875)"/>
<path d="M0 0 C1.01289093 -0.00140991 2.02578186 -0.00281982 3.06936646 -0.00427246 C6.34185324 -0.00639991 9.61424188 -0.00014078 12.88671875 0.0078125 C13.99226105 0.0093634 15.09780334 0.01091431 16.23684692 0.01251221 C28.830759 0.03338451 41.42459353 0.05872362 54.01171875 0.5078125 C54.9963208 0.53858887 55.98092285 0.56936523 56.99536133 0.60107422 C63.32488638 0.88348013 63.32488638 0.88348013 65.57421875 3.1328125 C67.4168866 12.22212605 63.67624798 20.59167452 60.44726562 28.88378906 C59.2921169 31.85952454 58.18410566 34.85200665 57.07519531 37.84521484 C55.91964243 40.94536869 54.74507525 44.03840603 53.57421875 47.1328125 C46.97421875 47.1328125 40.37421875 47.1328125 33.57421875 47.1328125 C34.44046875 44.79896484 34.44046875 44.79896484 35.32421875 42.41796875 C36.07496892 40.3440214 36.82492708 38.26978723 37.57421875 36.1953125 C38.1465625 34.66293945 38.1465625 34.66293945 38.73046875 33.09960938 C40.97412892 26.82938051 42.12104437 21.79724974 41.57421875 15.1328125 C40.5077676 13.83647629 40.5077676 13.83647629 38.01171875 14.0703125 C37.20734375 14.0909375 36.40296875 14.1115625 35.57421875 14.1328125 C32.14277399 20.56387975 29.70884457 27.10678568 27.38671875 34.0078125 C26.68597492 36.06807567 25.9842045 38.12799005 25.28125 40.1875 C24.82455933 41.54077393 24.82455933 41.54077393 24.35864258 42.92138672 C23.57421875 45.1328125 23.57421875 45.1328125 22.57421875 47.1328125 C17.29421875 47.1328125 12.01421875 47.1328125 6.57421875 47.1328125 C8.48098567 39.70645711 10.79601159 32.63571461 13.5859375 25.4921875 C14.66149865 21.83612984 14.89321444 18.9237758 14.57421875 15.1328125 C13.91421875 14.4728125 13.25421875 13.8128125 12.57421875 13.1328125 C10.59421875 13.4628125 8.61421875 13.7928125 6.57421875 14.1328125 C2.61421875 25.0228125 -1.34578125 35.9128125 -5.42578125 47.1328125 C-13.01578125 47.1328125 -20.60578125 47.1328125 -28.42578125 47.1328125 C-27.50853742 42.54659336 -26.12297335 38.51503778 -24.4140625 34.19921875 C-23.81486575 32.64812977 -23.21658617 31.09668622 -22.61914062 29.54492188 C-21.67964259 27.1144225 -20.73483481 24.68662266 -19.77416992 22.2644043 C-18.84527883 19.91561299 -17.94043605 17.55868318 -17.0390625 15.19921875 C-16.74751785 14.48028946 -16.45597321 13.76136017 -16.15559387 13.02064514 C-14.80216911 9.42053052 -14.35843308 7.41488085 -15.26245117 3.62866211 C-15.6463501 2.80503174 -16.03024902 1.98140137 -16.42578125 1.1328125 C-10.92987235 -0.01790592 -5.58614665 -0.01146608 0 0 Z " fill="#F4AF14" transform="translate(629.42578125,159.8671875)"/>
<path d="M0 0 C0.82435547 -0.01611328 1.64871094 -0.03222656 2.49804688 -0.04882812 C7.52393318 -0.05284562 11.13965517 0.41332189 15.4375 3.3125 C15.9325 4.7975 15.9325 4.7975 16.4375 6.3125 C17.0975 4.6625 17.7575 3.0125 18.4375 1.3125 C25.6975 1.3125 32.9575 1.3125 40.4375 1.3125 C39.86902344 2.88515625 39.30054688 4.4578125 38.71484375 6.078125 C37.93468394 8.23950686 37.15475245 10.40097114 36.375 12.5625 C35.96958984 13.68591797 35.56417969 14.80933594 35.14648438 15.96679688 C32.22359053 24.08390709 29.35330003 32.21778933 26.55834961 40.37988281 C24.54514775 46.20485225 24.54514775 46.20485225 23.4375 47.3125 C22.09482587 47.39881874 20.74775678 47.41956473 19.40234375 47.41015625 C18.59345703 47.40693359 17.78457031 47.40371094 16.95117188 47.40039062 C16.10103516 47.39201172 15.25089844 47.38363281 14.375 47.375 C13.52099609 47.37048828 12.66699219 47.36597656 11.78710938 47.36132812 C9.67054337 47.34950373 7.55401315 47.33156769 5.4375 47.3125 C5.4375 46.3225 5.4375 45.3325 5.4375 44.3125 C4.88497559 44.79928223 4.33245117 45.28606445 3.76318359 45.78759766 C1.00188845 47.59812143 -0.49975695 47.69868963 -3.7734375 47.7109375 C-4.77117188 47.71480469 -5.76890625 47.71867187 -6.796875 47.72265625 C-7.83328125 47.71105469 -8.8696875 47.69945312 -9.9375 47.6875 C-10.96617187 47.69910156 -11.99484375 47.71070313 -13.0546875 47.72265625 C-18.59201842 47.70124904 -22.83927816 47.55082935 -27.5625 44.3125 C-29.73844575 39.96060851 -28.74499315 35.01521333 -27.57202148 30.49853516 C-27.12401428 29.1943652 -26.66060821 27.89540442 -26.18359375 26.6015625 C-25.80896751 25.56024673 -25.80896751 25.56024673 -25.42677307 24.49789429 C-24.89812144 23.04505163 -24.36245656 21.59474314 -23.82006836 20.14697266 C-22.99789089 17.93181753 -22.22038068 15.70398895 -21.44335938 13.47265625 C-20.92192387 12.05631211 -20.39792305 10.6409092 -19.87109375 9.2265625 C-19.6447374 8.56202057 -19.41838104 7.89747864 -19.18516541 7.21279907 C-18.45874023 5.35009766 -18.45874023 5.35009766 -16.5625 2.3125 C-11.07254097 0.0420776 -5.84280576 -0.02294896 0 0 Z " fill="#F2AE14" transform="translate(566.5625,159.6875)"/>
<path d="M0 0 C2.20805524 -0.0544452 4.41650554 -0.09299283 6.625 -0.125 C7.85476563 -0.14820313 9.08453125 -0.17140625 10.3515625 -0.1953125 C13.94316041 -0.0030428 16.66661175 0.69741444 20 2 C19.41703538 7.49247209 18.02820625 12.19388607 16.05859375 17.33984375 C15.77146011 18.10680069 15.48432648 18.87375763 15.18849182 19.66395569 C14.27811887 22.09102356 13.35799139 24.51425402 12.4375 26.9375 C11.81510474 28.59155226 11.19335335 30.24584695 10.57226562 31.90039062 C9.05678929 35.93693973 7.52815258 39.96814265 6 44 C12.93 44.33 19.86 44.66 27 45 C27.33 43.35 27.66 41.7 28 40 C29.39989406 36.0183156 30.97486879 32.11020566 32.55541992 28.19702148 C33.3124211 26.3126964 34.04975804 24.42138212 34.78710938 22.52929688 C35.26599609 21.34013672 35.74488281 20.15097656 36.23828125 18.92578125 C36.67180908 17.83692627 37.10533691 16.74807129 37.55200195 15.6262207 C39.12199561 12.77873769 39.96288917 12.00415093 43 11 C47.25031548 10.44525633 50.34716253 10.56477502 54 13 C53.49930868 19.50898721 53.49930868 19.50898721 51.11914062 21.84960938 C48.56090252 24.44557265 47.64149172 26.759517 46.34375 30.15625 C45.87839844 31.34347656 45.41304688 32.53070313 44.93359375 33.75390625 C44.45451108 35.00213734 43.97665716 36.25084068 43.5 37.5 C42.56397466 39.95300999 41.61445344 42.39913679 40.65625 44.84375 C40.24181641 45.92849609 39.82738281 47.01324219 39.40039062 48.13085938 C37.94043124 51.12204533 36.5505558 52.8831619 34 55 C29.71817238 56.42727587 25.61054564 56.22447769 21.125 56.25 C20.22652344 56.270625 19.32804687 56.29125 18.40234375 56.3125 C13.42707958 56.34189595 10.06197029 56.2291814 6 53 C5.67386719 53.79664063 5.34773438 54.59328125 5.01171875 55.4140625 C-1.5988024 71.44311377 -1.5988024 71.44311377 -7 75 C-10.24634446 76.07145156 -13.29491239 76.13803768 -16.69897461 76.16113281 C-18.41611916 76.17554413 -18.41611916 76.17554413 -20.16795349 76.19024658 C-22.01647667 76.1966214 -22.01647667 76.1966214 -23.90234375 76.203125 C-25.1721962 76.20882507 -26.44204865 76.21452515 -27.75038147 76.22039795 C-30.43608178 76.22984335 -33.12167046 76.23674295 -35.80737305 76.24023438 C-39.24169164 76.24572262 -42.67561449 76.26976686 -46.10980892 76.29820633 C-49.39479041 76.32134956 -52.67979215 76.32328284 -55.96484375 76.328125 C-57.81033058 76.3466452 -57.81033058 76.3466452 -59.69309998 76.36553955 C-60.84101517 76.36253845 -61.98893036 76.35953735 -63.17163086 76.35644531 C-64.17882675 76.36009094 -65.18602264 76.36373657 -66.22373962 76.36749268 C-69.76658997 75.89852674 -72.45617499 74.54382501 -75 72 C-75.125 69 -75.125 69 -75 66 C-73.26420686 64.26420686 -70.89673238 64.86610643 -68.53393555 64.8581543 C-67.36569748 64.85111984 -66.19745941 64.84408539 -64.99382019 64.83683777 C-63.72097672 64.83267349 -62.44813324 64.82850922 -61.13671875 64.82421875 C-59.15263612 64.80696332 -57.16855337 64.78968451 -55.18448353 64.77101612 C-50.27446762 64.72535149 -45.36456226 64.68769363 -40.4543457 64.67407227 C-37.70461507 64.66594307 -34.95534113 64.64738723 -32.20576477 64.61714172 C-29.6116404 64.58890992 -27.01729446 64.5760935 -24.42301941 64.58000183 C-23.24532486 64.56351089 -22.06763031 64.54701996 -20.85424805 64.5300293 C-19.29990303 64.52122993 -19.29990303 64.52122993 -17.7141571 64.51225281 C-14.31572335 63.87085396 -13.14912272 62.64898455 -11 60 C-10.04279896 58.14744611 -10.04279896 58.14744611 -9.5 56.140625 C-9.13793457 54.98445679 -9.13793457 54.98445679 -8.76855469 53.80493164 C-8.51493164 52.9618042 -8.26130859 52.11867676 -8 51.25 C-4.88073637 41.40293033 -1.38015002 31.72955661 2.25 22.0625 C2.64324463 21.00814758 2.64324463 21.00814758 3.04443359 19.93249512 C3.80183664 17.90275456 4.56408225 15.87490559 5.328125 13.84765625 C5.7705957 12.67211182 6.21306641 11.49656738 6.66894531 10.28540039 C7.96137367 7.09534015 9.41683039 4.05470546 11 1 C7.37 1 3.74 1 0 1 C0 0.67 0 0.34 0 0 Z " fill="#020100" transform="translate(465,162)"/>
<path d="M0 0 C0.94261185 0.00374634 1.88522369 0.00749268 2.85639954 0.01135254 C4.84264339 0.02476622 6.82883562 0.0525422 8.81469727 0.09375 C11.86328909 0.15625016 14.90981443 0.17571102 17.95898438 0.1875 C19.88934828 0.20583362 21.81969107 0.22658313 23.75 0.25 C25.121847 0.26274963 25.121847 0.26274963 26.52140808 0.27575684 C27.36601089 0.29497192 28.21061371 0.31418701 29.08081055 0.33398438 C30.19736275 0.35446838 30.19736275 0.35446838 31.33647156 0.37536621 C33.17578125 0.65625 33.17578125 0.65625 35.17578125 2.65625 C36.45648664 10.89078546 32.45557679 17.88048264 29.17578125 25.21875 C28.31138946 27.15807195 27.45190508 29.0988112 26.60791016 31.04710388 C25.84322082 32.81219527 25.06078751 34.56956849 24.27734375 36.32641602 C22.80935921 40.17932888 22.80935921 40.17932888 23.17578125 46.65625 C16.57578125 46.65625 9.97578125 46.65625 3.17578125 46.65625 C2.84578125 45.33625 2.51578125 44.01625 2.17578125 42.65625 C1.28890625 43.31625 0.40203125 43.97625 -0.51171875 44.65625 C-6.39975398 48.02598096 -13.60107172 47.54186662 -20.078125 46.18359375 C-24.59760719 44.55345655 -26.7870856 41.89348695 -28.82421875 37.65625 C-29.51702804 32.21274846 -28.40395512 28.45989704 -25.82421875 23.65625 C-22.47453515 19.58231048 -19.86603785 18.01954085 -14.82421875 16.65625 C-11.66455078 16.42919922 -11.66455078 16.42919922 -8.33203125 16.4609375 C-6.53378906 16.47060547 -6.53378906 16.47060547 -4.69921875 16.48046875 C-2.84296875 16.50560547 -2.84296875 16.50560547 -0.94921875 16.53125 C0.31148438 16.54027344 1.5721875 16.54929688 2.87109375 16.55859375 C5.97285165 16.58209192 9.07421777 16.61494666 12.17578125 16.65625 C12.17578125 15.00625 12.17578125 13.35625 12.17578125 11.65625 C2.60578125 11.65625 -6.96421875 11.65625 -16.82421875 11.65625 C-12.92519832 1.90869893 -10.17586703 -0.27658893 0 0 Z " fill="#F1AD14" transform="translate(372.82421875,160.34375)"/>
<path d="M0 0 C1.77031739 -0.01166077 3.54176208 0.03660414 5.30932617 0.13598633 C6.7189991 0.15221794 6.7189991 0.15221794 8.15715027 0.16877747 C11.14258915 0.21687088 14.11921735 0.34248786 17.10229492 0.46801758 C19.12499593 0.50607176 21.14779333 0.5393249 23.1706543 0.56762695 C26.8571399 0.64358611 30.54249721 0.72351023 34.2265625 0.87890625 C34.96489822 0.90764328 35.70323395 0.93638031 36.46394348 0.96598816 C38.28979492 1.28051758 38.28979492 1.28051758 40.28979492 3.28051758 C41.34376672 11.81857484 38.2296038 18.30497583 34.85229492 26.03051758 C33.82898164 28.41952611 32.80929956 30.81009415 31.79370117 33.20239258 C31.33809814 34.25007813 30.88249512 35.29776367 30.41308594 36.37719727 C28.96970898 40.10782948 28.28979492 43.28625654 28.28979492 47.28051758 C25.1649693 47.36739254 22.04045246 47.42086326 18.91479492 47.46801758 C17.58061523 47.50572266 17.58061523 47.50572266 16.21948242 47.54418945 C15.36870117 47.55385742 14.51791992 47.56352539 13.64135742 47.57348633 C12.46307373 47.597052 12.46307373 47.597052 11.26098633 47.62109375 C10.28524658 47.45250854 10.28524658 47.45250854 9.28979492 47.28051758 C8.62979492 46.29051758 7.96979492 45.30051758 7.28979492 44.28051758 C6.69166992 44.58989258 6.09354492 44.89926758 5.47729492 45.21801758 C-0.62062343 48.17986363 -7.06886372 47.83777955 -13.71020508 47.28051758 C-17.82732961 45.83578115 -20.39879415 42.90805768 -22.71020508 39.28051758 C-23.68706689 33.47680915 -23.11570298 28.16173124 -19.71020508 23.28051758 C-14.60672586 18.0197883 -10.53433997 17.19923901 -3.41333008 16.96411133 C-2.20805664 16.9222168 -1.0027832 16.88032227 0.23901367 16.8371582 C1.49327148 16.7978418 2.7475293 16.75852539 4.03979492 16.71801758 C5.30952148 16.67483398 6.57924805 16.63165039 7.88745117 16.5871582 C11.02145857 16.48112036 14.15554425 16.379057 17.28979492 16.28051758 C17.28979492 15.29051758 17.28979492 14.30051758 17.28979492 13.28051758 C7.71979492 12.95051758 -1.85020508 12.62051758 -11.71020508 12.28051758 C-4.71020508 1.28051758 -4.71020508 1.28051758 0 0 Z " fill="#F2AE14" transform="translate(1274.710205078125,159.719482421875)"/>
<path d="M0 0 C0.33 0 0.66 0 1 0 C2.57894628 7.98990898 3.64727795 15.96541366 4.5 24.0625 C4.75649741 26.43489724 5.01300788 28.80729307 5.26953125 31.1796875 C5.45443115 32.90977051 5.45443115 32.90977051 5.64306641 34.67480469 C6.14461119 39.34719861 6.66548022 44.01735887 7.1875 48.6875 C7.45844866 51.12498718 7.72930322 53.56248483 8 56 C12.39428323 56.13013558 16.78180441 56.18609681 21.17749023 56.17700195 C22.66827303 56.18392684 24.15910826 56.2102021 25.64916992 56.25708008 C34.84038725 56.63451154 34.84038725 56.63451154 42.85009766 52.68212891 C45.11991486 49.88876263 47.07313534 47.03699026 49 44 C49.95708181 42.86754531 50.94140993 41.75662655 51.96875 40.6875 C56.31313076 36.07494759 60.5252675 31.44002468 64.5 26.5 C68.19935221 21.90403639 72.09228683 17.54919002 76.10083008 13.22558594 C79.49895227 9.56000491 82.78339804 5.82514827 86 2 C87 4 87 4 86.29418945 6.75878906 C84.9999782 10.60209078 83.68751408 14.43486589 82.3125 18.25 C82.06590637 18.93606323 81.81931274 19.62212646 81.56524658 20.32897949 C77.48277288 31.50984982 72.68310262 39.80324603 64 48 C62.35976465 49.79872434 60.73352671 51.61036479 59.125 53.4375 C58.41085937 54.21996094 57.69671875 55.00242188 56.9609375 55.80859375 C54.69990749 58.33536235 52.56762363 60.95021163 50.484375 63.625 C45.26351079 68.46116895 37.67801577 67.33678097 31.08007812 67.31567383 C29.00597796 67.31250912 26.93329967 67.33601838 24.859375 67.36132812 C23.54453125 67.36197266 22.2296875 67.36261719 20.875 67.36328125 C19.67617187 67.36626221 18.47734375 67.36924316 17.2421875 67.37231445 C13.6792258 66.96316411 11.83972198 66.15347689 9 64 C6.7466713 60.62000695 6.47185826 58.57602253 5.9296875 54.58203125 C5.75566406 53.32841797 5.58164063 52.07480469 5.40234375 50.78320312 C5.22639526 49.45965764 5.05061617 48.13608962 4.875 46.8125 C4.69211506 45.47711628 4.50852932 44.14182833 4.32421875 42.80664062 C3.87590073 39.53863825 3.43479519 36.26982441 3 33 C0.56804235 35.43195765 -0.06101889 37.47832151 -1.2421875 40.70703125 C-1.66886719 41.85107422 -2.09554687 42.99511719 -2.53515625 44.17382812 C-3.42365344 46.58675854 -4.30910455 49.00081291 -5.19140625 51.41601562 C-5.62066406 52.56392578 -6.04992187 53.71183594 -6.4921875 54.89453125 C-7.07009033 56.47004761 -7.07009033 56.47004761 -7.65966797 58.07739258 C-9.09188612 61.20035862 -10.66136161 63.48845195 -13 66 C-16.44665742 67.14888581 -19.24351905 67.2039347 -22.875 67.25 C-24.08929688 67.27578125 -25.30359375 67.3015625 -26.5546875 67.328125 C-30.52048261 66.95043023 -33.16462352 65.83537648 -36 63 C-36 60.69 -36 58.38 -36 56 C-30.72 56 -25.44 56 -20 56 C-19.73952881 54.70328369 -19.47905762 53.40656738 -19.21069336 52.07055664 C-18.11209111 47.14089106 -16.479752 42.56181102 -14.62890625 37.87109375 C-14.14441261 36.620187 -14.14441261 36.620187 -13.65013123 35.3440094 C-12.62695234 32.70611356 -11.59498169 30.07176668 -10.5625 27.4375 C-9.87374575 25.66755232 -9.18558967 23.89737175 -8.49804688 22.12695312 C-7.52600706 19.62436043 -6.55317719 17.12211492 -5.57557678 14.62168884 C-3.6761006 9.76249175 -1.82174904 4.88889808 0 0 Z " fill="#020200" transform="translate(222,151)"/>
<path d="M0 0 C1 2 1 2 0.24658203 4.80639648 C-0.8626961 7.99846783 -1.97841465 11.18693992 -3.12988281 14.36401367 C-3.85841917 16.39135945 -4.55455718 18.42790755 -5.25 20.46679688 C-8.40763472 29.3993758 -12.46863655 35.99281313 -19 43 C-20.54239241 44.72851935 -22.08414892 46.45760652 -23.625 48.1875 C-24.73294922 49.40373047 -24.73294922 49.40373047 -25.86328125 50.64453125 C-27.87631691 52.86365466 -29.84998777 55.11120657 -31.8125 57.375 C-38.26942728 64.75647576 -38.26942728 64.75647576 -42 66 C-46.23604588 66.22757756 -50.47239111 66.22828166 -54.71411133 66.24023438 C-56.79484373 66.24991783 -58.87457832 66.28094366 -60.95507812 66.3125 C-62.28905667 66.31903307 -63.62304224 66.32428235 -64.95703125 66.328125 C-66.16335205 66.3374707 -67.36967285 66.34681641 -68.61254883 66.35644531 C-72.48487845 65.94897856 -74.79306817 65.21513633 -78 63 C-79.84155756 59.0646073 -80.43466137 55.00661342 -81.0703125 50.7265625 C-81.24433594 49.57285156 -81.41835937 48.41914063 -81.59765625 47.23046875 C-81.77167969 46.04066406 -81.94570312 44.85085937 -82.125 43.625 C-82.30675781 42.41199219 -82.48851562 41.19898438 -82.67578125 39.94921875 C-83.1219664 36.96682325 -83.56320921 33.98378334 -84 31 C-84.31751221 31.82201904 -84.63502441 32.64403809 -84.9621582 33.4909668 C-86.14941294 36.55816786 -87.34077884 39.62370617 -88.53491211 42.68823242 C-89.04957448 44.01148837 -89.56262009 45.33537438 -90.07397461 46.65991211 C-90.81193227 48.5705542 -91.55579549 50.47880779 -92.30078125 52.38671875 C-92.74591064 53.53358154 -93.19104004 54.68044434 -93.6496582 55.86206055 C-96.87859241 63.36549417 -96.87859241 63.36549417 -100.28515625 65.29296875 C-106.65012805 66.95060889 -113.47837008 66.75648898 -119.75 64.875 C-122 63 -122 63 -122.9375 59.9375 C-123 57 -123 57 -122 55 C-117.05 55 -112.1 55 -107 55 C-106.5877417 53.56865723 -106.1754834 52.13731445 -105.75073242 50.66259766 C-104.0894924 45.13128612 -102.09170331 39.77449337 -99.98828125 34.3984375 C-99.42864937 32.95472275 -99.42864937 32.95472275 -98.85771179 31.48184204 C-97.67953413 28.44483115 -96.49611414 25.40989569 -95.3125 22.375 C-94.50681219 20.30091689 -93.70147039 18.22669934 -92.89648438 16.15234375 C-90.93498387 11.10000255 -88.9691894 6.04934901 -87 1 C-86.34 1 -85.68 1 -85 1 C-84.92483154 1.64211426 -84.84966309 2.28422852 -84.7722168 2.94580078 C-84.412746 6.00578579 -84.05060769 9.06544436 -83.6875 12.125 C-83.55432373 13.2476123 -83.42114746 14.37022461 -83.28393555 15.52685547 C-82.27000319 23.97688577 -81.15340391 32.40850525 -79.91479492 40.82861328 C-79.79467041 41.67149902 -79.6745459 42.51438477 -79.55078125 43.3828125 C-79.39089722 44.47166748 -79.39089722 44.47166748 -79.2277832 45.58251953 C-78.9314376 48.72765798 -78.96616053 51.84308991 -79 55 C-60.10316297 56.69470354 -60.10316297 56.69470354 -42.7421875 51.6484375 C-39.88992098 48.82981626 -37.96849028 45.47862109 -36 42 C-34.53378796 40.1395341 -33.03398283 38.30499523 -31.5 36.5 C-30.778125 35.6028125 -30.05625 34.705625 -29.3125 33.78125 C-26.80028498 30.7598022 -24.17592648 27.87565009 -21.5 25 C-17.1617872 20.33619513 -13.07934939 15.52103014 -9.08203125 10.55859375 C-6.14942344 6.95473237 -3.09075369 3.46840205 0 0 Z " fill="#020200" transform="translate(1216,152)"/>
<path d="M0 0 C2.114369 -0.01665886 4.22867949 -0.04407682 6.34277344 -0.08203125 C9.40215014 -0.13656982 12.46022356 -0.15862535 15.52001953 -0.17333984 C16.46689636 -0.19600922 17.41377319 -0.21867859 18.38934326 -0.24203491 C20.82895734 -0.23411681 23.02891516 -0.17706915 25.41064453 0.35009766 C28.99191278 4.17813322 28.97016974 8.07146404 28.82861328 13.09082031 C27.98510918 19.66837855 25.6273479 25.82115803 23.41064453 32.03759766 C22.92732686 33.43224485 22.44554446 34.82742508 21.96533203 36.22314453 C20.80072496 39.60652886 19.60552544 42.97669281 18.41064453 46.35009766 C12.14064453 46.35009766 5.87064453 46.35009766 -0.58935547 46.35009766 C0.12234959 42.07986731 0.76564059 39.00491386 2.25830078 35.09228516 C2.61601563 34.13708984 2.97373047 33.18189453 3.34228516 32.19775391 C4.09928161 30.20785994 4.85710087 28.2182788 5.61572266 26.22900391 C5.97214844 25.27638672 6.32857422 24.32376953 6.69580078 23.34228516 C7.02459229 22.47974121 7.35338379 21.61719727 7.69213867 20.72851562 C8.60343546 18.12601195 8.60343546 18.12601195 8.41064453 14.35009766 C5.2672246 12.77838769 1.85293002 13.11833982 -1.58935547 13.35009766 C-4.89256091 14.05919662 -4.89256091 14.05919662 -6.12329102 17.40112305 C-6.66899674 18.74541066 -7.20246814 20.09470528 -7.72607422 21.44775391 C-8.01037796 22.1566124 -8.2946817 22.86547089 -8.58760071 23.59580994 C-9.49453637 25.86404668 -10.3858048 28.1380799 -11.27685547 30.41259766 C-11.88846487 31.95011349 -12.50108263 33.48722862 -13.11474609 35.02392578 C-14.61998281 38.79414656 -16.10388964 42.57180155 -17.58935547 46.35009766 C-24.84935547 46.35009766 -32.10935547 46.35009766 -39.58935547 46.35009766 C-38.07341797 41.98791016 -38.07341797 41.98791016 -36.52685547 37.53759766 C-36.02206665 36.08075562 -36.02206665 36.08075562 -35.50708008 34.59448242 C-33.91693353 30.03507401 -32.28136037 25.50290748 -30.53076172 21.00244141 C-30.205354 20.15721924 -29.87994629 19.31199707 -29.54467773 18.44116211 C-28.92036392 16.82956134 -28.2845853 15.22234265 -27.63598633 13.62036133 C-25.90241484 9.11819882 -25.24307606 6.16916601 -26.58935547 1.35009766 C-17.78203896 -0.14294931 -8.91053533 0.05152208 0 0 Z " fill="#F4AF14" transform="translate(509.58935546875,160.64990234375)"/>
<path d="M0 0 C8.97141262 -0.04649356 17.94278328 -0.08195527 26.91429043 -0.10362434 C31.08084326 -0.11402832 35.24731321 -0.12812512 39.41381836 -0.15087891 C43.44034189 -0.17272875 47.46678606 -0.18459405 51.49336433 -0.18975449 C53.02382721 -0.19342856 54.55428611 -0.20060271 56.08471489 -0.21146011 C75.97379486 -0.34685296 75.97379486 -0.34685296 82.0625 4.375 C85.66741019 9.58209249 84.67966896 16.0869268 83.64990234 22.015625 C83.22596618 24.1476439 82.75361991 26.26043111 82.25 28.375 C82.01518921 29.37345947 82.01518921 29.37345947 81.77563477 30.39208984 C80.33003436 35.90184113 78.23630722 40.21866563 73.734375 43.8046875 C70.28421677 45.31289953 66.95908333 45.77274069 63.25 46.125 C62.60417969 46.19847656 61.95835937 46.27195313 61.29296875 46.34765625 C53.22298941 47.20744844 45.10089797 47.55124522 37 48 C36.68772461 48.9787207 36.37544922 49.95744141 36.05371094 50.96582031 C34.88813387 54.60772492 33.7064955 58.24425023 32.52001953 61.87939453 C32.00945885 63.45122211 31.503222 65.02446117 31.00146484 66.59912109 C30.27802956 68.86684 29.53901877 71.12896992 28.796875 73.390625 C28.57690857 74.09181458 28.35694214 74.79300415 28.13031006 75.51544189 C26.77233212 79.59310675 25.39791208 82.32090872 22 85 C18.1869216 86.27102613 14.58025528 86.18192734 10.60546875 86.203125 C9.78049393 86.20882507 8.9555191 86.21452515 8.10554504 86.22039795 C6.35968302 86.22984123 4.61380323 86.23637926 2.86791992 86.24023438 C0.20785082 86.24992586 -2.45144078 86.28094912 -5.11132812 86.3125 C-6.80989126 86.31903189 -8.5084599 86.32428163 -10.20703125 86.328125 C-11.39326836 86.3466452 -11.39326836 86.3466452 -12.60346985 86.36553955 C-17.42942476 86.34624544 -20.8821692 85.79998069 -25 83 C-25.9375 79.375 -25.9375 79.375 -26 76 C-25 75 -25 75 -21.21459961 74.88647461 C-19.52717271 74.88663378 -17.83974095 74.89233083 -16.15234375 74.90234375 C-14.82270348 74.90446617 -14.82270348 74.90446617 -13.46620178 74.90663147 C-10.62326746 74.91224785 -7.78041069 74.92480309 -4.9375 74.9375 C-3.01497509 74.94251289 -1.09244896 74.94707616 0.83007812 74.95117188 C5.55341549 74.96222259 10.27669458 74.97949817 15 75 C15.17570778 74.15435486 15.17570778 74.15435486 15.35496521 73.29162598 C16.42639603 68.28450693 17.72272247 63.45650515 19.34765625 58.59375 C19.56441513 57.94297485 19.78117401 57.29219971 20.00450134 56.6217041 C20.45697124 55.26660892 20.91161799 53.9122387 21.3684082 52.55859375 C22.06976359 50.47845706 22.76287335 48.39569745 23.45507812 46.3125 C26.86026923 36.13973077 26.86026923 36.13973077 28 35 C30.29308734 34.86533533 32.59007132 34.79627034 34.88671875 34.75390625 C36.31445867 34.72094224 37.74219289 34.68773107 39.16992188 34.65429688 C41.42337764 34.60705923 43.6768147 34.56268726 45.93041992 34.52319336 C48.10361121 34.48321066 50.27630614 34.43170418 52.44921875 34.37890625 C53.75205811 34.3538501 55.05489746 34.32879395 56.3972168 34.30297852 C59.96584719 34.0028721 62.72228156 33.42941028 66 32 C72.409275 23.4543 72.31839206 13.29467648 72 3 C68.41648087 1.8961154 65.0405535 1.84311829 61.30371094 1.79467773 C60.63988403 1.78477814 59.97605713 1.77487854 59.29211426 1.76467896 C57.10623698 1.7331874 54.920338 1.70835563 52.734375 1.68359375 C51.21550951 1.66301355 49.69664962 1.64201679 48.17779541 1.62062073 C44.18628475 1.56551016 40.19472335 1.51605247 36.203125 1.46777344 C32.1275584 1.41747783 28.0520652 1.36183389 23.9765625 1.30664062 C15.98443712 1.19919384 7.99225021 1.09771913 0 1 C0 0.67 0 0.34 0 0 Z " fill="#030200" transform="translate(828,132)"/>
<path d="M0 0 C8.58 0 17.16 0 26 0 C25.19968321 4.00158396 24.2305183 7.60736994 22.97460938 11.47094727 C22.77124466 12.09923431 22.56787994 12.72752136 22.35835266 13.37484741 C21.68938712 15.43954361 21.01653958 17.50295332 20.34375 19.56640625 C19.87646728 21.00690204 19.40947127 22.44749086 18.94274902 23.88816833 C17.7158131 27.67345226 16.48576431 31.45771657 15.25482178 35.24169922 C13.28400638 41.30123545 11.3170971 47.36203796 9.35176086 53.4233532 C8.66560377 55.5375848 7.97761497 57.65121393 7.28942871 59.76478577 C6.86802296 61.06265354 6.44667389 62.36053973 6.02539062 63.65844727 C5.6575647 64.78920181 5.28973877 65.91995636 4.9107666 67.0849762 C4.1976029 69.3675469 3.57999652 71.6800139 3 74 C-5.91 74 -14.82 74 -24 74 C-16.21496519 49.25868906 -8.29182027 24.57635706 0 0 Z " fill="#F5B014" transform="translate(951,133)"/>
<path d="M0 0 C5.10455945 -0.04979311 10.2089745 -0.08590409 15.3137207 -0.10986328 C17.04681871 -0.11986161 18.7799001 -0.13346473 20.51293945 -0.15087891 C23.01778284 -0.17540084 25.52240136 -0.18654496 28.02734375 -0.1953125 C28.79022202 -0.20563507 29.55310028 -0.21595764 30.33909607 -0.22659302 C37.29173888 -0.22801215 45.53601328 0.31658282 51 5 C54.4323718 9.99048795 55.39465037 13.89909353 55 20 C52.22242566 31.1471678 48.07919237 44.40818676 39.00390625 51.9140625 C32.25760916 55.56995059 25.05683618 55.41151149 17.5625 55.625 C16.44939453 55.66367188 15.33628906 55.70234375 14.18945312 55.7421875 C11.45979524 55.83590966 8.73013437 55.92162294 6 56 C5.56429688 56.97582031 5.12859375 57.95164063 4.6796875 58.95703125 C4.07910784 60.24264709 3.47749014 61.52777837 2.875 62.8125 C2.44960937 63.77639648 2.44960937 63.77639648 2.015625 64.75976562 C0.5270734 67.882488 -0.81890264 69.8665456 -3.61328125 71.92578125 C-8.1696734 73.37100367 -12.31137586 73.43756052 -17.0625 73.375 C-17.94744141 73.38660156 -18.83238281 73.39820313 -19.74414062 73.41015625 C-24.55402674 73.38850635 -28.21969246 73.32972543 -32 70 C-32.875 66.375 -32.875 66.375 -33 63 C-32 62 -32 62 -29.95874023 61.88647461 C-28.64691772 61.89432983 -28.64691772 61.89432983 -27.30859375 61.90234375 C-26.36435547 61.90556641 -25.42011719 61.90878906 -24.44726562 61.91210938 C-23.45404297 61.92048828 -22.46082031 61.92886719 -21.4375 61.9375 C-20.44041016 61.94201172 -19.44332031 61.94652344 -18.41601562 61.95117188 C-15.94395151 61.96299993 -13.47200482 61.97948151 -11 62 C-10.82984375 61.45472656 -10.6596875 60.90945312 -10.484375 60.34765625 C-8.67459186 54.71615022 -6.49654622 49.36060431 -4 44 C-2.74509766 43.98598145 -2.74509766 43.98598145 -1.46484375 43.97167969 C1.67416015 43.9273582 4.81222868 43.86560805 7.95068359 43.79248047 C9.9629854 43.75076728 11.97566395 43.72871469 13.98828125 43.70703125 C24.19350291 43.59558799 24.19350291 43.59558799 33 39 C35.0646109 36.20960603 35.0646109 36.20960603 36.25 32.9375 C36.72179688 31.78765625 37.19359375 30.6378125 37.6796875 29.453125 C38.33324219 27.74382812 38.33324219 27.74382812 39 26 C39.41507813 25.00484375 39.83015625 24.0096875 40.2578125 22.984375 C42.46426113 17.46053857 43.83458974 12.94645191 43 7 C40.79259319 4.03141843 39.51402627 3.17134209 36 2 C33.27116927 1.84629652 30.56302858 1.74271735 27.83203125 1.68359375 C27.03721848 1.66281265 26.2424057 1.64203156 25.42350769 1.62062073 C22.88659237 1.55527913 20.34957427 1.49631192 17.8125 1.4375 C16.09178628 1.39430014 14.37108292 1.35068537 12.65039062 1.30664062 C8.43369887 1.19961352 4.2169038 1.09830276 0 1 C0 0.67 0 0.34 0 0 Z " fill="#010100" transform="translate(1336,163)"/>
<path d="M0 0 C0.78503906 -0.01224609 1.57007813 -0.02449219 2.37890625 -0.03710938 C6.6136086 -0.0478211 10.09559243 0.04108174 13.875 2.1875 C16.3905162 5.9607743 15.95209232 7.58559676 15.35546875 11.90234375 C14.41143289 16.39227042 12.50560663 20.31326975 8.875 23.1875 C4.73096378 24.56884541 0.83993462 24.37174179 -3.5 24.375 C-4.35078125 24.38724609 -5.2015625 24.39949219 -6.078125 24.41210938 C-14.27422418 24.43125914 -14.27422418 24.43125914 -18.125 22.1875 C-20.47502368 17.59427189 -20.23536323 14.14142824 -19.125 9.1875 C-18.21787993 6.47091411 -17.19782535 3.8462411 -16.125 1.1875 C-10.71486868 0.28581145 -5.48072585 0.00454455 0 0 Z " fill="#000000" transform="translate(996.125,190.8125)"/>
<path d="M0 0 C1.89510699 -0.08160748 3.79124504 -0.13946459 5.6875 -0.1875 C6.74324219 -0.22230469 7.79898438 -0.25710937 8.88671875 -0.29296875 C12.39065615 0.03676187 14.19698511 0.91415288 17 3 C18.19857963 5.39715925 18.20084509 7.01265376 18.25 9.6875 C18.27578125 10.51636719 18.3015625 11.34523437 18.328125 12.19921875 C17.75283146 17.10976006 16.80422226 20.5014122 12.97509766 23.68188477 C10.4333587 25.38190551 7.8442852 26.92394903 5.1875 28.4375 C4.29740234 28.97826172 3.40730469 29.51902344 2.49023438 30.07617188 C-5.70813037 34.88336721 -5.70813037 34.88336721 -11 34 C-12.875 32.9375 -12.875 32.9375 -14 31 C-14.62109375 27.71484375 -14.62109375 27.71484375 -14 24 C-10.69260099 21.06942438 -6.58718255 19.32646504 -2.66210938 17.359375 C1.81951398 14.92597951 4.35943101 13.29983172 6.01171875 8.3359375 C6.36491139 6.89624816 6.69704543 5.45109233 7 4 C7.33 3.01 7.66 2.02 8 1 C5.36 1 2.72 1 0 1 C0 0.67 0 0.34 0 0 Z " fill="#010100" transform="translate(705,191)"/>
<path d="M0 0 C3.04221065 -0.08132642 6.0822238 -0.14065374 9.125 -0.1875 C9.9809375 -0.21263672 10.836875 -0.23777344 11.71875 -0.26367188 C16.81188502 -0.32243882 20.78545151 -0.21140516 25 3 C26.74205429 7.01776605 25.87669896 9.83804378 24.453125 13.78515625 C23.73377663 15.55046888 22.99889637 17.30951826 22.25 19.0625 C21.8890625 19.94744141 21.528125 20.83238281 21.15625 21.74414062 C20.14596426 24.18383428 19.08732099 26.59383619 18 29 C17.54496094 30.02351563 17.08992187 31.04703125 16.62109375 32.1015625 C15 34 15 34 12.08203125 34.48828125 C11.00308594 34.43027344 9.92414062 34.37226563 8.8125 34.3125 C7.72582031 34.26738281 6.63914062 34.22226563 5.51953125 34.17578125 C4.68808594 34.11777344 3.85664062 34.05976563 3 34 C3.51009536 27.511945 5.80663696 22.22061965 8.4375 16.3125 C8.84548828 15.37599609 9.25347656 14.43949219 9.67382812 13.47460938 C11.36964329 9.59885563 13.1073118 5.7853764 15 2 C10.05 1.67 5.1 1.34 0 1 C0 0.67 0 0.34 0 0 Z " fill="#020200" transform="translate(557,160)"/>
<path d="M0 0 C7.74122829 -0.07606971 15.48236016 -0.12860834 23.22387695 -0.16479492 C25.85737714 -0.17988057 28.49085221 -0.20035166 31.12426758 -0.22631836 C34.90973104 -0.26271019 38.69486227 -0.2797289 42.48046875 -0.29296875 C43.65772018 -0.30845261 44.83497162 -0.32393646 46.04789734 -0.33988953 C47.69904289 -0.34022942 47.69904289 -0.34022942 49.38354492 -0.34057617 C50.34951096 -0.34723801 51.31547699 -0.35389984 52.31071472 -0.36076355 C55.51486315 0.06906811 57.39288421 1.12011652 60 3 C61.06542969 4.90136719 61.06542969 4.90136719 61.671875 7.046875 C61.90068359 7.84287109 62.12949219 8.63886719 62.36523438 9.45898438 C63.42637785 13.70682335 64.39626734 17.955466 65.25 22.25 C65.435625 23.12140625 65.62125 23.9928125 65.8125 24.890625 C67.4652877 33.10447904 67.4652877 33.10447904 66 37 C64.58984375 39.01953125 64.58984375 39.01953125 62.9375 40.8125 C62.38964844 41.41707031 61.84179688 42.02164063 61.27734375 42.64453125 C60.85582031 43.09183594 60.43429687 43.53914063 60 44 C56.71672731 39.07509097 56.14751103 33.30048418 54.9375 27.5625 C54.66873047 26.34111328 54.39996094 25.11972656 54.12304688 23.86132812 C53.86458984 22.65025391 53.60613281 21.43917969 53.33984375 20.19140625 C53.10644287 19.10029541 52.87304199 18.00918457 52.63256836 16.88500977 C51.77714459 11.63130138 51.4420423 6.30450754 51 1 C34.17 1 17.34 1 0 1 C0 0.67 0 0.34 0 0 Z " fill="#020100" transform="translate(1121,132)"/>
<path d="M0 0 C7.74122829 -0.07606971 15.48236016 -0.12860834 23.22387695 -0.16479492 C25.85737714 -0.17988057 28.49085221 -0.20035166 31.12426758 -0.22631836 C34.90973104 -0.26271019 38.69486227 -0.2797289 42.48046875 -0.29296875 C43.65772018 -0.30845261 44.83497162 -0.32393646 46.04789734 -0.33988953 C47.69904289 -0.34022942 47.69904289 -0.34022942 49.38354492 -0.34057617 C50.34951096 -0.34723801 51.31547699 -0.35389984 52.31071472 -0.36076355 C55.53957617 0.07238333 57.39053929 1.07365049 60 3 C63.31630567 8.99022767 64.67355911 15.74026161 66.1875 22.375 C66.47947266 23.46039063 66.77144531 24.54578125 67.07226562 25.6640625 C68.84002561 33.5974244 68.84002561 33.5974244 66.32666016 37.79394531 C64.32828771 40.04668813 62.30325351 42.06351845 60 44 C57.8906526 40.8359789 57.44775014 38.95296769 56.78125 35.2578125 C56.57113281 34.10796875 56.36101562 32.958125 56.14453125 31.7734375 C55.93183594 30.56945312 55.71914063 29.36546875 55.5 28.125 C55.28730469 26.9596875 55.07460938 25.794375 54.85546875 24.59375 C53.43662172 16.7422161 52.21426672 8.8927337 51 1 C34.17 1 17.34 1 0 1 C0 0.67 0 0.34 0 0 Z " fill="#020100" transform="translate(213,132)"/>
<path d="M0 0 C1.21236328 0.04060547 1.21236328 0.04060547 2.44921875 0.08203125 C3.06410156 0.11683594 3.67898438 0.15164062 4.3125 0.1875 C0.84718075 18.77421232 0.84718075 18.77421232 -4.62109375 24.0546875 C-7.67056623 25.726421 -10.28164668 25.44454553 -13.6875 25.1875 C-14.6875 24.1875 -14.6875 24.1875 -14.95703125 21.60546875 C-14.62073356 17.3408241 -13.24275351 14.29939396 -11.375 10.5 C-10.9119043 9.50516602 -10.9119043 9.50516602 -10.43945312 8.49023438 C-6.24821392 -0.27166147 -6.24821392 -0.27166147 0 0 Z " fill="#040300" transform="translate(445.6875,174.8125)"/>
<path d="M0 0 C7.26 0 14.52 0 22 0 C20.66666667 4 19.33333333 8 18 12 C10.74 12 3.48 12 -4 12 C-2.68 8.04 -1.36 4.08 0 0 Z " fill="#F4AF14" transform="translate(980,192)"/>
<path d="M0 0 C7.26 0 14.52 0 22 0 C20 6 20 6 17 12 C10.07 12 3.14 12 -4 12 C-1 2 -1 2 0 0 Z " fill="#F5B014" transform="translate(901,192)"/>
<path d="M0 0 C4.95 0 9.9 0 15 0 C14.28359607 9.6714531 14.28359607 9.6714531 10.9921875 13.078125 C8.39731825 14.88395878 5.76187148 16.46222668 3 18 C1.12386979 19.14398184 -0.75118867 20.28972383 -2.625 21.4375 C-4.08109535 22.29547618 -5.53857678 23.15113077 -7 24 C-7 20.41087588 -6.33563446 19.89142971 -4 17.3125 C-3.443125 16.68988281 -2.88625 16.06726563 -2.3125 15.42578125 C-1.879375 14.95527344 -1.44625 14.48476562 -1 14 C-1.35835937 13.44828125 -1.71671875 12.8965625 -2.0859375 12.328125 C-3.76316533 8.05621138 -1.43026321 4.18076937 0 0 Z " fill="#F0AD14" transform="translate(698,192)"/>
<path d="M0 0 C0.66 0.66 1.32 1.32 2 2 C1.7608463 8.81588039 0.0412493 15.4206208 -4.45703125 20.71484375 C-6 22.125 -6 22.125 -9 24 C-11.35560128 23.8726702 -12.34378382 23.65621618 -14 22 C-14.92820865 15.03843516 -12.17440394 9.11631633 -9 3 C-6.26489456 -0.4080282 -4.32882958 -0.46051379 0 0 Z " fill="#040300" transform="translate(1352,175)"/>
<path d="M0 0 C2.5 0.25 2.5 0.25 4.5 2.25 C4.2829439 8.43609891 2.70775311 13.9184931 -0.5 19.25 C-3.72373677 21.39915785 -4.76703674 21.63286803 -8.5 21.25 C-9.16 20.59 -9.82 19.93 -10.5 19.25 C-10.37065107 13.04125134 -7.15729111 0.71572911 0 0 Z " fill="#050400" transform="translate(866.5,138.75)"/>
<path d="M0 0 C1.39195915 4.17587745 -0.17676781 6.13474776 -2 10 C-4.97 10 -7.94 10 -11 10 C-11.6875 7.1875 -11.6875 7.1875 -12 4 C-8.77395392 -0.45501602 -5.18531564 -0.09602436 0 0 Z " fill="#0C0801" transform="translate(1287,185)"/>
<path d="M0 0 C0.90492188 0.02320313 1.80984375 0.04640625 2.7421875 0.0703125 C4.10730469 0.09738281 4.10730469 0.09738281 5.5 0.125 C6.19867188 0.14820313 6.89734375 0.17140625 7.6171875 0.1953125 C7.1192038 3.93019027 6.74226994 6.00768885 4.6171875 9.1953125 C1.8744367 9.66645988 -0.57840147 9.37337034 -3.3828125 9.1953125 C-4.3828125 8.1953125 -4.3828125 8.1953125 -4.5703125 5.2578125 C-4.3427658 1.54121643 -3.83035209 0.31396329 0 0 Z " fill="#030200" transform="translate(372.3828125,185.8046875)"/>
<path d="M0 0 C3.89581756 -0.02911003 7.791607 -0.04683587 11.6875 -0.0625 C12.79029297 -0.07087891 13.89308594 -0.07925781 15.02929688 -0.08789062 C16.6293457 -0.09272461 16.6293457 -0.09272461 18.26171875 -0.09765625 C19.24100342 -0.10289307 20.22028809 -0.10812988 21.22924805 -0.11352539 C23.92469572 -0.00308543 26.37545639 0.39465834 29 1 C28.67 2.65 28.34 4.3 28 6 C27.41863281 5.35546875 26.83726562 4.7109375 26.23828125 4.046875 C21.40640655 0.99271053 16.79572354 1.32537014 11.1875 1.25 C10.11306641 1.22035156 9.03863281 1.19070312 7.93164062 1.16015625 C5.28768573 1.08965079 2.6446027 1.03685857 0 1 C0 0.67 0 0.34 0 0 Z " fill="#000000" transform="translate(430,161)"/>
<path d="M0 0 C7.26 0 14.52 0 22 0 C22 0.99 22 1.98 22 3 C21.34 3.66 20.68 4.32 20 5 C19.34 4.01 18.68 3.02 18 2 C16.07558585 1.49468134 16.07558585 1.49468134 13.8671875 1.48828125 C13.06152344 1.45283203 12.25585938 1.41738281 11.42578125 1.38085938 C10.58402344 1.35830078 9.74226562 1.33574219 8.875 1.3125 C8.02550781 1.27833984 7.17601562 1.24417969 6.30078125 1.20898438 C4.20098895 1.12640827 2.10051436 1.06153022 0 1 C0 0.67 0 0.34 0 0 Z " fill="#000000" transform="translate(646,160)"/>
<path d="M0 0 C6.93 0 13.86 0 21 0 C20.67 1.32 20.34 2.64 20 4 C19.34 4 18.68 4 18 4 C18 3.01 18 2.02 18 1 C12.06 1 6.12 1 0 1 C0 0.67 0 0.34 0 0 Z " fill="#030200" transform="translate(619,160)"/>
<path d="M0 0 C6.93 0 13.86 0 21 0 C20.34 1.32 19.68 2.64 19 4 C18.34 4 17.68 4 17 4 C17 3.01 17 2.02 17 1 C11.39 1 5.78 1 0 1 C0 0.67 0 0.34 0 0 Z " fill="#060400" transform="translate(490,161)"/>
<path d="M0 0 C2.97 0.495 2.97 0.495 6 1 C5.67 2.65 5.34 4.3 5 6 C3.2925002 4.71937515 1.62626404 3.38232443 0 2 C0 1.34 0 0.68 0 0 Z " fill="#0A0700" transform="translate(453,161)"/>
<path d="M0 0 C0.99 0.99 1.98 1.98 3 3 C2.34 4.65 1.68 6.3 1 8 C-1 6 -1 6 -1.1875 3.4375 C-1 1 -1 1 0 0 Z " fill="#060400" transform="translate(1116,135)"/>
<path d="M0 0 C1.32 0.33 2.64 0.66 4 1 C3.34 2.98 2.68 4.96 2 7 C0 5 0 5 -0.125 2.375 C-0.08375 1.59125 -0.0425 0.8075 0 0 Z " fill="#050400" transform="translate(822,136)"/>
<path d="M0 0 C1.485 0.99 1.485 0.99 3 2 C2.67 3.65 2.34 5.3 2 7 C1.34 7 0.68 7 0 7 C-1.125 2.25 -1.125 2.25 0 0 Z " fill="#000000" transform="translate(208,135)"/>
</svg>
